<?xml version="1.0" encoding="utf-8" standalone="no"?>
<!DOCTYPE svg PUBLIC "-//W3C//DTD SVG 1.1//EN"
  "http://www.w3.org/Graphics/SVG/1.1/DTD/svg11.dtd">
<!-- Created with matplotlib (https://matplotlib.org/) -->
<svg height="756pt" version="1.1" viewBox="0 0 1332 756" width="1332pt" xmlns="http://www.w3.org/2000/svg" xmlns:xlink="http://www.w3.org/1999/xlink">
 <defs>
  <style type="text/css">
*{stroke-linecap:butt;stroke-linejoin:round;}
  </style>
 </defs>
 <g id="figure_1">
  <g id="patch_1">
   <path d="M 0 756 
L 1332 756 
L 1332 0 
L 0 0 
z
" style="fill:#ffffff;"/>
  </g>
  <g id="axes_1">
   <g id="patch_2">
    <path d="M 166.5 355.32 
L 1198.8 355.32 
L 1198.8 90.72 
L 166.5 90.72 
z
" style="fill:#ffffff;"/>
   </g>
   <g id="PathCollection_1">
    <defs>
     <path d="M 0 3 
C 0.795609 3 1.55874 2.683901 2.12132 2.12132 
C 2.683901 1.55874 3 0.795609 3 0 
C 3 -0.795609 2.683901 -1.55874 2.12132 -2.12132 
C 1.55874 -2.683901 0.795609 -3 0 -3 
C -0.795609 -3 -1.55874 -2.683901 -2.12132 -2.12132 
C -2.683901 -1.55874 -3 -0.795609 -3 0 
C -3 0.795609 -2.683901 1.55874 -2.12132 2.12132 
C -1.55874 2.683901 -0.795609 3 0 3 
z
" id="mc504eb93c1" style="stroke:#21918c;"/>
    </defs>
    <g clip-path="url(#p339d3679e5)">
     <use style="fill:#21918c;stroke:#21918c;" x="213.422727" xlink:href="#mc504eb93c1" y="102.747273"/>
    </g>
   </g>
   <g id="PathCollection_2">
    <defs>
     <path d="M 0 3 
C 0.795609 3 1.55874 2.683901 2.12132 2.12132 
C 2.683901 1.55874 3 0.795609 3 0 
C 3 -0.795609 2.683901 -1.55874 2.12132 -2.12132 
C 1.55874 -2.683901 0.795609 -3 0 -3 
C -0.795609 -3 -1.55874 -2.683901 -2.12132 -2.12132 
C -2.683901 -1.55874 -3 -0.795609 -3 0 
C -3 0.795609 -2.683901 1.55874 -2.12132 2.12132 
C -1.55874 2.683901 -0.795609 3 0 3 
z
" id="mdf080314b1" style="stroke:#3b528b;"/>
    </defs>
    <g clip-path="url(#p339d3679e5)">
     <use style="fill:#3b528b;stroke:#3b528b;" x="218.086064" xlink:href="#mdf080314b1" y="162.142353"/>
    </g>
   </g>
   <g id="PathCollection_3">
    <g clip-path="url(#p339d3679e5)">
     <use style="fill:#21918c;stroke:#21918c;" x="224.398528" xlink:href="#mc504eb93c1" y="232.135419"/>
    </g>
   </g>
   <g id="PathCollection_4">
    <defs>
     <path d="M 0 3 
C 0.795609 3 1.55874 2.683901 2.12132 2.12132 
C 2.683901 1.55874 3 0.795609 3 0 
C 3 -0.795609 2.683901 -1.55874 2.12132 -2.12132 
C 1.55874 -2.683901 0.795609 -3 0 -3 
C -0.795609 -3 -1.55874 -2.683901 -2.12132 -2.12132 
C -2.683901 -1.55874 -3 -0.795609 -3 0 
C -3 0.795609 -2.683901 1.55874 -2.12132 2.12132 
C -1.55874 2.683901 -0.795609 3 0 3 
z
" id="m48c8635d21" style="stroke:#440154;"/>
    </defs>
    <g clip-path="url(#p339d3679e5)">
     <use style="fill:#440154;stroke:#440154;" x="226.144127" xlink:href="#m48c8635d21" y="245.408755"/>
    </g>
   </g>
   <g id="PathCollection_5">
    <defs>
     <path d="M 0 3 
C 0.795609 3 1.55874 2.683901 2.12132 2.12132 
C 2.683901 1.55874 3 0.795609 3 0 
C 3 -0.795609 2.683901 -1.55874 2.12132 -2.12132 
C 1.55874 -2.683901 0.795609 -3 0 -3 
C -0.795609 -3 -1.55874 -2.683901 -2.12132 -2.12132 
C -2.683901 -1.55874 -3 -0.795609 -3 0 
C -3 0.795609 -2.683901 1.55874 -2.12132 2.12132 
C -1.55874 2.683901 -0.795609 3 0 3 
z
" id="m42eab66e9d" style="stroke:#5ec962;"/>
    </defs>
    <g clip-path="url(#p339d3679e5)">
     <use style="fill:#5ec962;stroke:#5ec962;" x="308.596901" xlink:href="#m42eab66e9d" y="268.373032"/>
    </g>
   </g>
   <g id="PathCollection_6">
    <g clip-path="url(#p339d3679e5)">
     <use style="fill:#440154;stroke:#440154;" x="310.361758" xlink:href="#m48c8635d21" y="271.642428"/>
    </g>
   </g>
   <g id="PathCollection_7">
    <g clip-path="url(#p339d3679e5)">
     <use style="fill:#21918c;stroke:#21918c;" x="316.702139" xlink:href="#mc504eb93c1" y="292.512641"/>
    </g>
   </g>
   <g id="PathCollection_8">
    <g clip-path="url(#p339d3679e5)">
     <use style="fill:#440154;stroke:#440154;" x="317.883184" xlink:href="#m48c8635d21" y="297.246958"/>
    </g>
   </g>
   <g id="PathCollection_9">
    <g clip-path="url(#p339d3679e5)">
     <use style="fill:#21918c;stroke:#21918c;" x="325.86304" xlink:href="#mc504eb93c1" y="303.512305"/>
    </g>
   </g>
   <g id="PathCollection_10">
    <defs>
     <path d="M 0 3 
C 0.795609 3 1.55874 2.683901 2.12132 2.12132 
C 2.683901 1.55874 3 0.795609 3 0 
C 3 -0.795609 2.683901 -1.55874 2.12132 -2.12132 
C 1.55874 -2.683901 0.795609 -3 0 -3 
C -0.795609 -3 -1.55874 -2.683901 -2.12132 -2.12132 
C -2.683901 -1.55874 -3 -0.795609 -3 0 
C -3 0.795609 -2.683901 1.55874 -2.12132 2.12132 
C -1.55874 2.683901 -0.795609 3 0 3 
z
" id="mf836c9e231" style="stroke:#fde725;"/>
    </defs>
    <g clip-path="url(#p339d3679e5)">
     <use style="fill:#fde725;stroke:#fde725;" x="340.237142" xlink:href="#mf836c9e231" y="305.402358"/>
    </g>
   </g>
   <g id="PathCollection_11">
    <g clip-path="url(#p339d3679e5)">
     <use style="fill:#5ec962;stroke:#5ec962;" x="351.511954" xlink:href="#m42eab66e9d" y="306.32505"/>
    </g>
   </g>
   <g id="PathCollection_12">
    <g clip-path="url(#p339d3679e5)">
     <use style="fill:#440154;stroke:#440154;" x="353.2626" xlink:href="#m48c8635d21" y="307.571736"/>
    </g>
   </g>
   <g id="PathCollection_13">
    <g clip-path="url(#p339d3679e5)">
     <use style="fill:#440154;stroke:#440154;" x="354.44877" xlink:href="#m48c8635d21" y="309.078375"/>
    </g>
   </g>
   <g id="PathCollection_14">
    <g clip-path="url(#p339d3679e5)">
     <use style="fill:#5ec962;stroke:#5ec962;" x="365.532575" xlink:href="#m42eab66e9d" y="309.765169"/>
    </g>
   </g>
   <g id="PathCollection_15">
    <g clip-path="url(#p339d3679e5)">
     <use style="fill:#5ec962;stroke:#5ec962;" x="376.731224" xlink:href="#m42eab66e9d" y="310.391492"/>
    </g>
   </g>
   <g id="PathCollection_16">
    <g clip-path="url(#p339d3679e5)">
     <use style="fill:#5ec962;stroke:#5ec962;" x="389.852613" xlink:href="#m42eab66e9d" y="311.127046"/>
    </g>
   </g>
   <g id="PathCollection_17">
    <g clip-path="url(#p339d3679e5)">
     <use style="fill:#440154;stroke:#440154;" x="455.864094" xlink:href="#m48c8635d21" y="311.72444"/>
    </g>
   </g>
   <g id="PathCollection_18">
    <g clip-path="url(#p339d3679e5)">
     <use style="fill:#5ec962;stroke:#5ec962;" x="464.907706" xlink:href="#m42eab66e9d" y="312.513212"/>
    </g>
   </g>
   <g id="PathCollection_19">
    <g clip-path="url(#p339d3679e5)">
     <use style="fill:#fde725;stroke:#fde725;" x="482.077128" xlink:href="#mf836c9e231" y="313.138634"/>
    </g>
   </g>
   <g id="PathCollection_20">
    <g clip-path="url(#p339d3679e5)">
     <use style="fill:#440154;stroke:#440154;" x="483.261237" xlink:href="#m48c8635d21" y="313.765834"/>
    </g>
   </g>
   <g id="PathCollection_21">
    <g clip-path="url(#p339d3679e5)">
     <use style="fill:#440154;stroke:#440154;" x="485.009839" xlink:href="#m48c8635d21" y="314.359223"/>
    </g>
   </g>
   <g id="PathCollection_22">
    <g clip-path="url(#p339d3679e5)">
     <use style="fill:#21918c;stroke:#21918c;" x="493.988741" xlink:href="#mc504eb93c1" y="314.948898"/>
    </g>
   </g>
   <g id="PathCollection_23">
    <g clip-path="url(#p339d3679e5)">
     <use style="fill:#440154;stroke:#440154;" x="495.166652" xlink:href="#m48c8635d21" y="315.533324"/>
    </g>
   </g>
   <g id="PathCollection_24">
    <g clip-path="url(#p339d3679e5)">
     <use style="fill:#3b528b;stroke:#3b528b;" x="500.778199" xlink:href="#mdf080314b1" y="316.112196"/>
    </g>
   </g>
   <g id="PathCollection_25">
    <g clip-path="url(#p339d3679e5)">
     <use style="fill:#fde725;stroke:#fde725;" x="518.018218" xlink:href="#mf836c9e231" y="316.687348"/>
    </g>
   </g>
   <g id="PathCollection_26">
    <g clip-path="url(#p339d3679e5)">
     <use style="fill:#5ec962;stroke:#5ec962;" x="531.411192" xlink:href="#m42eab66e9d" y="317.257674"/>
    </g>
   </g>
   <g id="PathCollection_27">
    <g clip-path="url(#p339d3679e5)">
     <use style="fill:#440154;stroke:#440154;" x="532.882683" xlink:href="#m48c8635d21" y="317.809747"/>
    </g>
   </g>
   <g id="PathCollection_28">
    <g clip-path="url(#p339d3679e5)">
     <use style="fill:#3b528b;stroke:#3b528b;" x="538.501425" xlink:href="#mdf080314b1" y="318.376471"/>
    </g>
   </g>
   <g id="PathCollection_29">
    <g clip-path="url(#p339d3679e5)">
     <use style="fill:#440154;stroke:#440154;" x="539.672711" xlink:href="#m48c8635d21" y="318.930084"/>
    </g>
   </g>
   <g id="PathCollection_30">
    <g clip-path="url(#p339d3679e5)">
     <use style="fill:#fde725;stroke:#fde725;" x="556.832323" xlink:href="#mf836c9e231" y="319.487014"/>
    </g>
   </g>
   <g id="PathCollection_31">
    <g clip-path="url(#p339d3679e5)">
     <use style="fill:#3b528b;stroke:#3b528b;" x="561.655927" xlink:href="#mdf080314b1" y="320.03106"/>
    </g>
   </g>
   <g id="PathCollection_32">
    <g clip-path="url(#p339d3679e5)">
     <use style="fill:#fde725;stroke:#fde725;" x="573.196449" xlink:href="#mf836c9e231" y="320.575392"/>
    </g>
   </g>
   <g id="PathCollection_33">
    <g clip-path="url(#p339d3679e5)">
     <use style="fill:#440154;stroke:#440154;" x="574.380137" xlink:href="#m48c8635d21" y="321.110758"/>
    </g>
   </g>
   <g id="PathCollection_34">
    <g clip-path="url(#p339d3679e5)">
     <use style="fill:#21918c;stroke:#21918c;" x="582.185396" xlink:href="#mc504eb93c1" y="321.643386"/>
    </g>
   </g>
   <g id="PathCollection_35">
    <g clip-path="url(#p339d3679e5)">
     <use style="fill:#21918c;stroke:#21918c;" x="591.311967" xlink:href="#mc504eb93c1" y="322.18027"/>
    </g>
   </g>
   <g id="PathCollection_36">
    <g clip-path="url(#p339d3679e5)">
     <use style="fill:#21918c;stroke:#21918c;" x="600.32376" xlink:href="#mc504eb93c1" y="322.71346"/>
    </g>
   </g>
   <g id="PathCollection_37">
    <g clip-path="url(#p339d3679e5)">
     <use style="fill:#21918c;stroke:#21918c;" x="606.684785" xlink:href="#mc504eb93c1" y="323.239577"/>
    </g>
   </g>
   <g id="PathCollection_38">
    <g clip-path="url(#p339d3679e5)">
     <use style="fill:#3b528b;stroke:#3b528b;" x="610.425561" xlink:href="#mdf080314b1" y="323.759185"/>
    </g>
   </g>
   <g id="PathCollection_39">
    <g clip-path="url(#p339d3679e5)">
     <use style="fill:#5ec962;stroke:#5ec962;" x="623.730883" xlink:href="#m42eab66e9d" y="324.281761"/>
    </g>
   </g>
   <g id="PathCollection_40">
    <g clip-path="url(#p339d3679e5)">
     <use style="fill:#21918c;stroke:#21918c;" x="630.015765" xlink:href="#mc504eb93c1" y="324.795088"/>
    </g>
   </g>
   <g id="PathCollection_41">
    <g clip-path="url(#p339d3679e5)">
     <use style="fill:#440154;stroke:#440154;" x="631.186711" xlink:href="#m48c8635d21" y="325.301065"/>
    </g>
   </g>
   <g id="PathCollection_42">
    <g clip-path="url(#p339d3679e5)">
     <use style="fill:#21918c;stroke:#21918c;" x="639.096718" xlink:href="#mc504eb93c1" y="325.804966"/>
    </g>
   </g>
   <g id="PathCollection_43">
    <g clip-path="url(#p339d3679e5)">
     <use style="fill:#440154;stroke:#440154;" x="640.776898" xlink:href="#m48c8635d21" y="326.311471"/>
    </g>
   </g>
   <g id="PathCollection_44">
    <g clip-path="url(#p339d3679e5)">
     <use style="fill:#440154;stroke:#440154;" x="641.949836" xlink:href="#m48c8635d21" y="326.809739"/>
    </g>
   </g>
   <g id="PathCollection_45">
    <g clip-path="url(#p339d3679e5)">
     <use style="fill:#fde725;stroke:#fde725;" x="653.402857" xlink:href="#mf836c9e231" y="327.307842"/>
    </g>
   </g>
   <g id="PathCollection_46">
    <g clip-path="url(#p339d3679e5)">
     <use style="fill:#440154;stroke:#440154;" x="654.578312" xlink:href="#m48c8635d21" y="327.794616"/>
    </g>
   </g>
   <g id="PathCollection_47">
    <g clip-path="url(#p339d3679e5)">
     <use style="fill:#fde725;stroke:#fde725;" x="668.928365" xlink:href="#mf836c9e231" y="328.28641"/>
    </g>
   </g>
   <g id="PathCollection_48">
    <g clip-path="url(#p339d3679e5)">
     <use style="fill:#3b528b;stroke:#3b528b;" x="673.54641" xlink:href="#mdf080314b1" y="328.77233"/>
    </g>
   </g>
   <g id="PathCollection_49">
    <g clip-path="url(#p339d3679e5)">
     <use style="fill:#21918c;stroke:#21918c;" x="683.040774" xlink:href="#mc504eb93c1" y="329.265032"/>
    </g>
   </g>
   <g id="PathCollection_50">
    <g clip-path="url(#p339d3679e5)">
     <use style="fill:#440154;stroke:#440154;" x="684.508593" xlink:href="#m48c8635d21" y="329.74137"/>
    </g>
   </g>
   <g id="PathCollection_51">
    <g clip-path="url(#p339d3679e5)">
     <use style="fill:#5ec962;stroke:#5ec962;" x="697.786919" xlink:href="#m42eab66e9d" y="330.226583"/>
    </g>
   </g>
   <g id="PathCollection_52">
    <g clip-path="url(#p339d3679e5)">
     <use style="fill:#fde725;stroke:#fde725;" x="711.90344" xlink:href="#mf836c9e231" y="330.701655"/>
    </g>
   </g>
   <g id="PathCollection_53">
    <g clip-path="url(#p339d3679e5)">
     <use style="fill:#3b528b;stroke:#3b528b;" x="717.23878" xlink:href="#mdf080314b1" y="331.180229"/>
    </g>
   </g>
   <g id="PathCollection_54">
    <g clip-path="url(#p339d3679e5)">
     <use style="fill:#440154;stroke:#440154;" x="781.827835" xlink:href="#m48c8635d21" y="331.64365"/>
    </g>
   </g>
   <g id="PathCollection_55">
    <g clip-path="url(#p339d3679e5)">
     <use style="fill:#21918c;stroke:#21918c;" x="788.194906" xlink:href="#mc504eb93c1" y="332.111499"/>
    </g>
   </g>
   <g id="PathCollection_56">
    <g clip-path="url(#p339d3679e5)">
     <use style="fill:#440154;stroke:#440154;" x="789.931954" xlink:href="#m48c8635d21" y="332.573352"/>
    </g>
   </g>
   <g id="PathCollection_57">
    <g clip-path="url(#p339d3679e5)">
     <use style="fill:#fde725;stroke:#fde725;" x="801.454047" xlink:href="#mf836c9e231" y="333.035838"/>
    </g>
   </g>
   <g id="PathCollection_58">
    <g clip-path="url(#p339d3679e5)">
     <use style="fill:#440154;stroke:#440154;" x="802.631033" xlink:href="#m48c8635d21" y="333.490794"/>
    </g>
   </g>
   <g id="PathCollection_59">
    <g clip-path="url(#p339d3679e5)">
     <use style="fill:#5ec962;stroke:#5ec962;" x="879.145694" xlink:href="#m42eab66e9d" y="333.947092"/>
    </g>
   </g>
   <g id="PathCollection_60">
    <g clip-path="url(#p339d3679e5)">
     <use style="fill:#21918c;stroke:#21918c;" x="885.480512" xlink:href="#mc504eb93c1" y="334.398031"/>
    </g>
   </g>
   <g id="PathCollection_61">
    <g clip-path="url(#p339d3679e5)">
     <use style="fill:#5ec962;stroke:#5ec962;" x="896.590002" xlink:href="#m42eab66e9d" y="334.847566"/>
    </g>
   </g>
   <g id="PathCollection_62">
    <g clip-path="url(#p339d3679e5)">
     <use style="fill:#440154;stroke:#440154;" x="897.77316" xlink:href="#m48c8635d21" y="335.290876"/>
    </g>
   </g>
   <g id="PathCollection_63">
    <g clip-path="url(#p339d3679e5)">
     <use style="fill:#440154;stroke:#440154;" x="898.960856" xlink:href="#m48c8635d21" y="335.727893"/>
    </g>
   </g>
   <g id="PathCollection_64">
    <g clip-path="url(#p339d3679e5)">
     <use style="fill:#fde725;stroke:#fde725;" x="915.259578" xlink:href="#mf836c9e231" y="336.182216"/>
    </g>
   </g>
   <g id="PathCollection_65">
    <g clip-path="url(#p339d3679e5)">
     <use style="fill:#21918c;stroke:#21918c;" x="924.297612" xlink:href="#mc504eb93c1" y="336.625571"/>
    </g>
   </g>
   <g id="PathCollection_66">
    <g clip-path="url(#p339d3679e5)">
     <use style="fill:#3b528b;stroke:#3b528b;" x="929.93622" xlink:href="#mdf080314b1" y="337.065852"/>
    </g>
   </g>
   <g id="PathCollection_67">
    <g clip-path="url(#p339d3679e5)">
     <use style="fill:#21918c;stroke:#21918c;" x="937.72988" xlink:href="#mc504eb93c1" y="337.497667"/>
    </g>
   </g>
   <g id="PathCollection_68">
    <g clip-path="url(#p339d3679e5)">
     <use style="fill:#5ec962;stroke:#5ec962;" x="949.000947" xlink:href="#m42eab66e9d" y="337.926067"/>
    </g>
   </g>
   <g id="PathCollection_69">
    <g clip-path="url(#p339d3679e5)">
     <use style="fill:#3b528b;stroke:#3b528b;" x="953.893201" xlink:href="#mdf080314b1" y="338.35146"/>
    </g>
   </g>
   <g id="PathCollection_70">
    <g clip-path="url(#p339d3679e5)">
     <use style="fill:#5ec962;stroke:#5ec962;" x="962.937583" xlink:href="#m42eab66e9d" y="338.778865"/>
    </g>
   </g>
   <g id="PathCollection_71">
    <g clip-path="url(#p339d3679e5)">
     <use style="fill:#5ec962;stroke:#5ec962;" x="1041.467915" xlink:href="#m42eab66e9d" y="339.202026"/>
    </g>
   </g>
   <g id="PathCollection_72">
    <g clip-path="url(#p339d3679e5)">
     <use style="fill:#440154;stroke:#440154;" x="1042.655823" xlink:href="#m48c8635d21" y="339.619236"/>
    </g>
   </g>
   <g id="PathCollection_73">
    <g clip-path="url(#p339d3679e5)">
     <use style="fill:#440154;stroke:#440154;" x="1043.843209" xlink:href="#m48c8635d21" y="340.034523"/>
    </g>
   </g>
   <g id="PathCollection_74">
    <g clip-path="url(#p339d3679e5)">
     <use style="fill:#3b528b;stroke:#3b528b;" x="1047.682002" xlink:href="#mdf080314b1" y="340.448611"/>
    </g>
   </g>
   <g id="PathCollection_75">
    <g clip-path="url(#p339d3679e5)">
     <use style="fill:#21918c;stroke:#21918c;" x="1123.876612" xlink:href="#mc504eb93c1" y="340.861798"/>
    </g>
   </g>
   <g id="PathCollection_76">
    <g clip-path="url(#p339d3679e5)">
     <use style="fill:#440154;stroke:#440154;" x="1125.059356" xlink:href="#m48c8635d21" y="341.264219"/>
    </g>
   </g>
   <g id="PathCollection_77">
    <g clip-path="url(#p339d3679e5)">
     <use style="fill:#3b528b;stroke:#3b528b;" x="1129.742574" xlink:href="#mdf080314b1" y="341.673604"/>
    </g>
   </g>
   <g id="PathCollection_78">
    <g clip-path="url(#p339d3679e5)">
     <use style="fill:#3b528b;stroke:#3b528b;" x="1133.481264" xlink:href="#mdf080314b1" y="342.081495"/>
    </g>
   </g>
   <g id="PathCollection_79">
    <g clip-path="url(#p339d3679e5)">
     <use style="fill:#440154;stroke:#440154;" x="1135.241" xlink:href="#m48c8635d21" y="342.487777"/>
    </g>
   </g>
   <g id="PathCollection_80">
    <g clip-path="url(#p339d3679e5)">
     <use style="fill:#3b528b;stroke:#3b528b;" x="1140.774976" xlink:href="#mdf080314b1" y="342.893314"/>
    </g>
   </g>
   <g id="PathCollection_81">
    <g clip-path="url(#p339d3679e5)">
     <use style="fill:#5ec962;stroke:#5ec962;" x="1151.877273" xlink:href="#m42eab66e9d" y="343.292727"/>
    </g>
   </g>
   <g id="matplotlib.axis_1">
    <g id="xtick_1">
     <g id="line2d_1">
      <defs>
       <path d="M 0 0 
L 0 3.5 
" id="m16cda34a79" style="stroke:#000000;stroke-width:0.8;"/>
      </defs>
      <g>
       <use style="stroke:#000000;stroke-width:0.8;" x="203.905005" xlink:href="#m16cda34a79" y="355.32"/>
      </g>
     </g>
     <g id="text_1">
      <!-- 0 -->
      <defs>
       <path d="M 31.78125 66.40625 
Q 24.171875 66.40625 20.328125 58.90625 
Q 16.5 51.421875 16.5 36.375 
Q 16.5 21.390625 20.328125 13.890625 
Q 24.171875 6.390625 31.78125 6.390625 
Q 39.453125 6.390625 43.28125 13.890625 
Q 47.125 21.390625 47.125 36.375 
Q 47.125 51.421875 43.28125 58.90625 
Q 39.453125 66.40625 31.78125 66.40625 
z
M 31.78125 74.21875 
Q 44.046875 74.21875 50.515625 64.515625 
Q 56.984375 54.828125 56.984375 36.375 
Q 56.984375 17.96875 50.515625 8.265625 
Q 44.046875 -1.421875 31.78125 -1.421875 
Q 19.53125 -1.421875 13.0625 8.265625 
Q 6.59375 17.96875 6.59375 36.375 
Q 6.59375 54.828125 13.0625 64.515625 
Q 19.53125 74.21875 31.78125 74.21875 
z
" id="DejaVuSans-48"/>
      </defs>
      <g transform="translate(200.723755 369.918437)scale(0.1 -0.1)">
       <use xlink:href="#DejaVuSans-48"/>
      </g>
     </g>
    </g>
    <g id="xtick_2">
     <g id="line2d_2">
      <g>
       <use style="stroke:#000000;stroke-width:0.8;" x="400.358949" xlink:href="#m16cda34a79" y="355.32"/>
      </g>
     </g>
     <g id="text_2">
      <!-- 50 -->
      <defs>
       <path d="M 10.796875 72.90625 
L 49.515625 72.90625 
L 49.515625 64.59375 
L 19.828125 64.59375 
L 19.828125 46.734375 
Q 21.96875 47.46875 24.109375 47.828125 
Q 26.265625 48.1875 28.421875 48.1875 
Q 40.625 48.1875 47.75 41.5 
Q 54.890625 34.8125 54.890625 23.390625 
Q 54.890625 11.625 47.5625 5.09375 
Q 40.234375 -1.421875 26.90625 -1.421875 
Q 22.3125 -1.421875 17.546875 -0.640625 
Q 12.796875 0.140625 7.71875 1.703125 
L 7.71875 11.625 
Q 12.109375 9.234375 16.796875 8.0625 
Q 21.484375 6.890625 26.703125 6.890625 
Q 35.15625 6.890625 40.078125 11.328125 
Q 45.015625 15.765625 45.015625 23.390625 
Q 45.015625 31 40.078125 35.4375 
Q 35.15625 39.890625 26.703125 39.890625 
Q 22.75 39.890625 18.8125 39.015625 
Q 14.890625 38.140625 10.796875 36.28125 
z
" id="DejaVuSans-53"/>
      </defs>
      <g transform="translate(393.996449 369.918437)scale(0.1 -0.1)">
       <use xlink:href="#DejaVuSans-53"/>
       <use x="63.623047" xlink:href="#DejaVuSans-48"/>
      </g>
     </g>
    </g>
    <g id="xtick_3">
     <g id="line2d_3">
      <g>
       <use style="stroke:#000000;stroke-width:0.8;" x="596.812893" xlink:href="#m16cda34a79" y="355.32"/>
      </g>
     </g>
     <g id="text_3">
      <!-- 100 -->
      <defs>
       <path d="M 12.40625 8.296875 
L 28.515625 8.296875 
L 28.515625 63.921875 
L 10.984375 60.40625 
L 10.984375 69.390625 
L 28.421875 72.90625 
L 38.28125 72.90625 
L 38.28125 8.296875 
L 54.390625 8.296875 
L 54.390625 0 
L 12.40625 0 
z
" id="DejaVuSans-49"/>
      </defs>
      <g transform="translate(587.269143 369.918437)scale(0.1 -0.1)">
       <use xlink:href="#DejaVuSans-49"/>
       <use x="63.623047" xlink:href="#DejaVuSans-48"/>
       <use x="127.246094" xlink:href="#DejaVuSans-48"/>
      </g>
     </g>
    </g>
    <g id="xtick_4">
     <g id="line2d_4">
      <g>
       <use style="stroke:#000000;stroke-width:0.8;" x="793.266837" xlink:href="#m16cda34a79" y="355.32"/>
      </g>
     </g>
     <g id="text_4">
      <!-- 150 -->
      <g transform="translate(783.723087 369.918437)scale(0.1 -0.1)">
       <use xlink:href="#DejaVuSans-49"/>
       <use x="63.623047" xlink:href="#DejaVuSans-53"/>
       <use x="127.246094" xlink:href="#DejaVuSans-48"/>
      </g>
     </g>
    </g>
    <g id="xtick_5">
     <g id="line2d_5">
      <g>
       <use style="stroke:#000000;stroke-width:0.8;" x="989.720781" xlink:href="#m16cda34a79" y="355.32"/>
      </g>
     </g>
     <g id="text_5">
      <!-- 200 -->
      <defs>
       <path d="M 19.1875 8.296875 
L 53.609375 8.296875 
L 53.609375 0 
L 7.328125 0 
L 7.328125 8.296875 
Q 12.9375 14.109375 22.625 23.890625 
Q 32.328125 33.6875 34.8125 36.53125 
Q 39.546875 41.84375 41.421875 45.53125 
Q 43.3125 49.21875 43.3125 52.78125 
Q 43.3125 58.59375 39.234375 62.25 
Q 35.15625 65.921875 28.609375 65.921875 
Q 23.96875 65.921875 18.8125 64.3125 
Q 13.671875 62.703125 7.8125 59.421875 
L 7.8125 69.390625 
Q 13.765625 71.78125 18.9375 73 
Q 24.125 74.21875 28.421875 74.21875 
Q 39.75 74.21875 46.484375 68.546875 
Q 53.21875 62.890625 53.21875 53.421875 
Q 53.21875 48.921875 51.53125 44.890625 
Q 49.859375 40.875 45.40625 35.40625 
Q 44.1875 33.984375 37.640625 27.21875 
Q 31.109375 20.453125 19.1875 8.296875 
z
" id="DejaVuSans-50"/>
      </defs>
      <g transform="translate(980.177031 369.918437)scale(0.1 -0.1)">
       <use xlink:href="#DejaVuSans-50"/>
       <use x="63.623047" xlink:href="#DejaVuSans-48"/>
       <use x="127.246094" xlink:href="#DejaVuSans-48"/>
      </g>
     </g>
    </g>
    <g id="xtick_6">
     <g id="line2d_6">
      <g>
       <use style="stroke:#000000;stroke-width:0.8;" x="1186.174725" xlink:href="#m16cda34a79" y="355.32"/>
      </g>
     </g>
     <g id="text_6">
      <!-- 250 -->
      <g transform="translate(1176.630975 369.918437)scale(0.1 -0.1)">
       <use xlink:href="#DejaVuSans-50"/>
       <use x="63.623047" xlink:href="#DejaVuSans-53"/>
       <use x="127.246094" xlink:href="#DejaVuSans-48"/>
      </g>
     </g>
    </g>
   </g>
   <g id="matplotlib.axis_2">
    <g id="ytick_1">
     <g id="line2d_7">
      <defs>
       <path d="M 0 0 
L -3.5 0 
" id="m9c819d7ebc" style="stroke:#000000;stroke-width:0.8;"/>
      </defs>
      <g>
       <use style="stroke:#000000;stroke-width:0.8;" x="166.5" xlink:href="#m9c819d7ebc" y="246.987381"/>
      </g>
     </g>
     <g id="text_7">
      <!-- $\mathdefault{10^{4}}$ -->
      <defs>
       <path d="M 37.796875 64.3125 
L 12.890625 25.390625 
L 37.796875 25.390625 
z
M 35.203125 72.90625 
L 47.609375 72.90625 
L 47.609375 25.390625 
L 58.015625 25.390625 
L 58.015625 17.1875 
L 47.609375 17.1875 
L 47.609375 0 
L 37.796875 0 
L 37.796875 17.1875 
L 4.890625 17.1875 
L 4.890625 26.703125 
z
" id="DejaVuSans-52"/>
      </defs>
      <g transform="translate(141.9 250.7866)scale(0.1 -0.1)">
       <use transform="translate(0 0.684375)" xlink:href="#DejaVuSans-49"/>
       <use transform="translate(63.623047 0.684375)" xlink:href="#DejaVuSans-48"/>
       <use transform="translate(128.203125 38.965625)scale(0.7)" xlink:href="#DejaVuSans-52"/>
      </g>
     </g>
    </g>
    <g id="ytick_2">
     <g id="line2d_8">
      <defs>
       <path d="M 0 0 
L -2 0 
" id="m305fdd0336" style="stroke:#000000;stroke-width:0.6;"/>
      </defs>
      <g>
       <use style="stroke:#000000;stroke-width:0.6;" x="166.5" xlink:href="#m305fdd0336" y="324.494811"/>
      </g>
     </g>
     <g id="text_8">
      <!-- $\mathdefault{8\times10^{3}}$ -->
      <defs>
       <path d="M 31.78125 34.625 
Q 24.75 34.625 20.71875 30.859375 
Q 16.703125 27.09375 16.703125 20.515625 
Q 16.703125 13.921875 20.71875 10.15625 
Q 24.75 6.390625 31.78125 6.390625 
Q 38.8125 6.390625 42.859375 10.171875 
Q 46.921875 13.96875 46.921875 20.515625 
Q 46.921875 27.09375 42.890625 30.859375 
Q 38.875 34.625 31.78125 34.625 
z
M 21.921875 38.8125 
Q 15.578125 40.375 12.03125 44.71875 
Q 8.5 49.078125 8.5 55.328125 
Q 8.5 64.0625 14.71875 69.140625 
Q 20.953125 74.21875 31.78125 74.21875 
Q 42.671875 74.21875 48.875 69.140625 
Q 55.078125 64.0625 55.078125 55.328125 
Q 55.078125 49.078125 51.53125 44.71875 
Q 48 40.375 41.703125 38.8125 
Q 48.828125 37.15625 52.796875 32.3125 
Q 56.78125 27.484375 56.78125 20.515625 
Q 56.78125 9.90625 50.3125 4.234375 
Q 43.84375 -1.421875 31.78125 -1.421875 
Q 19.734375 -1.421875 13.25 4.234375 
Q 6.78125 9.90625 6.78125 20.515625 
Q 6.78125 27.484375 10.78125 32.3125 
Q 14.796875 37.15625 21.921875 38.8125 
z
M 18.3125 54.390625 
Q 18.3125 48.734375 21.84375 45.5625 
Q 25.390625 42.390625 31.78125 42.390625 
Q 38.140625 42.390625 41.71875 45.5625 
Q 45.3125 48.734375 45.3125 54.390625 
Q 45.3125 60.0625 41.71875 63.234375 
Q 38.140625 66.40625 31.78125 66.40625 
Q 25.390625 66.40625 21.84375 63.234375 
Q 18.3125 60.0625 18.3125 54.390625 
z
" id="DejaVuSans-56"/>
       <path d="M 70.125 53.71875 
L 47.796875 31.296875 
L 70.125 8.984375 
L 64.3125 3.078125 
L 41.890625 25.484375 
L 19.484375 3.078125 
L 13.71875 8.984375 
L 35.984375 31.296875 
L 13.71875 53.71875 
L 19.484375 59.625 
L 41.890625 37.203125 
L 64.3125 59.625 
z
" id="DejaVuSans-215"/>
       <path d="M 40.578125 39.3125 
Q 47.65625 37.796875 51.625 33 
Q 55.609375 28.21875 55.609375 21.1875 
Q 55.609375 10.40625 48.1875 4.484375 
Q 40.765625 -1.421875 27.09375 -1.421875 
Q 22.515625 -1.421875 17.65625 -0.515625 
Q 12.796875 0.390625 7.625 2.203125 
L 7.625 11.71875 
Q 11.71875 9.328125 16.59375 8.109375 
Q 21.484375 6.890625 26.8125 6.890625 
Q 36.078125 6.890625 40.9375 10.546875 
Q 45.796875 14.203125 45.796875 21.1875 
Q 45.796875 27.640625 41.28125 31.265625 
Q 36.765625 34.90625 28.71875 34.90625 
L 20.21875 34.90625 
L 20.21875 43.015625 
L 29.109375 43.015625 
Q 36.375 43.015625 40.234375 45.921875 
Q 44.09375 48.828125 44.09375 54.296875 
Q 44.09375 59.90625 40.109375 62.90625 
Q 36.140625 65.921875 28.71875 65.921875 
Q 24.65625 65.921875 20.015625 65.03125 
Q 15.375 64.15625 9.8125 62.3125 
L 9.8125 71.09375 
Q 15.4375 72.65625 20.34375 73.4375 
Q 25.25 74.21875 29.59375 74.21875 
Q 40.828125 74.21875 47.359375 69.109375 
Q 53.90625 64.015625 53.90625 55.328125 
Q 53.90625 49.265625 50.4375 45.09375 
Q 46.96875 40.921875 40.578125 39.3125 
z
" id="DejaVuSans-51"/>
      </defs>
      <g transform="translate(124.9 328.29403)scale(0.1 -0.1)">
       <use transform="translate(0 0.765625)" xlink:href="#DejaVuSans-56"/>
       <use transform="translate(83.105469 0.765625)" xlink:href="#DejaVuSans-215"/>
       <use transform="translate(186.376953 0.765625)" xlink:href="#DejaVuSans-49"/>
       <use transform="translate(250 0.765625)" xlink:href="#DejaVuSans-48"/>
       <use transform="translate(314.580078 39.046875)scale(0.7)" xlink:href="#DejaVuSans-51"/>
      </g>
     </g>
    </g>
    <g id="ytick_3">
     <g id="line2d_9">
      <g>
       <use style="stroke:#000000;stroke-width:0.6;" x="166.5" xlink:href="#m305fdd0336" y="283.583656"/>
      </g>
     </g>
     <g id="text_9">
      <!-- $\mathdefault{9\times10^{3}}$ -->
      <defs>
       <path d="M 10.984375 1.515625 
L 10.984375 10.5 
Q 14.703125 8.734375 18.5 7.8125 
Q 22.3125 6.890625 25.984375 6.890625 
Q 35.75 6.890625 40.890625 13.453125 
Q 46.046875 20.015625 46.78125 33.40625 
Q 43.953125 29.203125 39.59375 26.953125 
Q 35.25 24.703125 29.984375 24.703125 
Q 19.046875 24.703125 12.671875 31.3125 
Q 6.296875 37.9375 6.296875 49.421875 
Q 6.296875 60.640625 12.9375 67.421875 
Q 19.578125 74.21875 30.609375 74.21875 
Q 43.265625 74.21875 49.921875 64.515625 
Q 56.59375 54.828125 56.59375 36.375 
Q 56.59375 19.140625 48.40625 8.859375 
Q 40.234375 -1.421875 26.421875 -1.421875 
Q 22.703125 -1.421875 18.890625 -0.6875 
Q 15.09375 0.046875 10.984375 1.515625 
z
M 30.609375 32.421875 
Q 37.25 32.421875 41.125 36.953125 
Q 45.015625 41.5 45.015625 49.421875 
Q 45.015625 57.28125 41.125 61.84375 
Q 37.25 66.40625 30.609375 66.40625 
Q 23.96875 66.40625 20.09375 61.84375 
Q 16.21875 57.28125 16.21875 49.421875 
Q 16.21875 41.5 20.09375 36.953125 
Q 23.96875 32.421875 30.609375 32.421875 
z
" id="DejaVuSans-57"/>
      </defs>
      <g transform="translate(124.9 287.382875)scale(0.1 -0.1)">
       <use transform="translate(0 0.765625)" xlink:href="#DejaVuSans-57"/>
       <use transform="translate(83.105469 0.765625)" xlink:href="#DejaVuSans-215"/>
       <use transform="translate(186.376953 0.765625)" xlink:href="#DejaVuSans-49"/>
       <use transform="translate(250 0.765625)" xlink:href="#DejaVuSans-48"/>
       <use transform="translate(314.580078 39.046875)scale(0.7)" xlink:href="#DejaVuSans-51"/>
      </g>
     </g>
    </g>
   </g>
   <g id="patch_3">
    <path d="M 166.5 355.32 
L 166.5 90.72 
" style="fill:none;stroke:#000000;stroke-linecap:square;stroke-linejoin:miter;stroke-width:0.8;"/>
   </g>
   <g id="patch_4">
    <path d="M 1198.8 355.32 
L 1198.8 90.72 
" style="fill:none;stroke:#000000;stroke-linecap:square;stroke-linejoin:miter;stroke-width:0.8;"/>
   </g>
   <g id="patch_5">
    <path d="M 166.5 355.32 
L 1198.8 355.32 
" style="fill:none;stroke:#000000;stroke-linecap:square;stroke-linejoin:miter;stroke-width:0.8;"/>
   </g>
   <g id="patch_6">
    <path d="M 166.5 90.72 
L 1198.8 90.72 
" style="fill:none;stroke:#000000;stroke-linecap:square;stroke-linejoin:miter;stroke-width:0.8;"/>
   </g>
   <g id="text_10">
    <!-- Error -->
    <defs>
     <path d="M 9.8125 72.90625 
L 55.90625 72.90625 
L 55.90625 64.59375 
L 19.671875 64.59375 
L 19.671875 43.015625 
L 54.390625 43.015625 
L 54.390625 34.71875 
L 19.671875 34.71875 
L 19.671875 8.296875 
L 56.78125 8.296875 
L 56.78125 0 
L 9.8125 0 
z
" id="DejaVuSans-69"/>
     <path d="M 41.109375 46.296875 
Q 39.59375 47.171875 37.8125 47.578125 
Q 36.03125 48 33.890625 48 
Q 26.265625 48 22.1875 43.046875 
Q 18.109375 38.09375 18.109375 28.8125 
L 18.109375 0 
L 9.078125 0 
L 9.078125 54.6875 
L 18.109375 54.6875 
L 18.109375 46.1875 
Q 20.953125 51.171875 25.484375 53.578125 
Q 30.03125 56 36.53125 56 
Q 37.453125 56 38.578125 55.875 
Q 39.703125 55.765625 41.0625 55.515625 
z
" id="DejaVuSans-114"/>
     <path d="M 30.609375 48.390625 
Q 23.390625 48.390625 19.1875 42.75 
Q 14.984375 37.109375 14.984375 27.296875 
Q 14.984375 17.484375 19.15625 11.84375 
Q 23.34375 6.203125 30.609375 6.203125 
Q 37.796875 6.203125 41.984375 11.859375 
Q 46.1875 17.53125 46.1875 27.296875 
Q 46.1875 37.015625 41.984375 42.703125 
Q 37.796875 48.390625 30.609375 48.390625 
z
M 30.609375 56 
Q 42.328125 56 49.015625 48.375 
Q 55.71875 40.765625 55.71875 27.296875 
Q 55.71875 13.875 49.015625 6.21875 
Q 42.328125 -1.421875 30.609375 -1.421875 
Q 18.84375 -1.421875 12.171875 6.21875 
Q 5.515625 13.875 5.515625 27.296875 
Q 5.515625 40.765625 12.171875 48.375 
Q 18.84375 56 30.609375 56 
z
" id="DejaVuSans-111"/>
    </defs>
    <g transform="translate(668.027812 84.72)scale(0.12 -0.12)">
     <use xlink:href="#DejaVuSans-69"/>
     <use x="63.183594" xlink:href="#DejaVuSans-114"/>
     <use x="102.546875" xlink:href="#DejaVuSans-114"/>
     <use x="141.410156" xlink:href="#DejaVuSans-111"/>
     <use x="202.591797" xlink:href="#DejaVuSans-114"/>
    </g>
   </g>
   <g id="legend_1">
    <g id="patch_7">
     <path d="M 1056.492188 201.466875 
L 1191.8 201.466875 
Q 1193.8 201.466875 1193.8 199.466875 
L 1193.8 97.72 
Q 1193.8 95.72 1191.8 95.72 
L 1056.492188 95.72 
Q 1054.492188 95.72 1054.492188 97.72 
L 1054.492188 199.466875 
Q 1054.492188 201.466875 1056.492188 201.466875 
z
" style="fill:#ffffff;opacity:0.8;stroke:#cccccc;stroke-linejoin:miter;"/>
    </g>
    <g id="patch_8">
     <path d="M 1058.492188 107.318438 
L 1078.492188 107.318438 
L 1078.492188 100.318438 
L 1058.492188 100.318438 
z
" style="fill:#440154;stroke:#440154;stroke-linejoin:miter;"/>
    </g>
    <g id="text_11">
     <!-- 0.1 sketching rate -->
     <defs>
      <path d="M 10.6875 12.40625 
L 21 12.40625 
L 21 0 
L 10.6875 0 
z
" id="DejaVuSans-46"/>
      <path id="DejaVuSans-32"/>
      <path d="M 44.28125 53.078125 
L 44.28125 44.578125 
Q 40.484375 46.53125 36.375 47.5 
Q 32.28125 48.484375 27.875 48.484375 
Q 21.1875 48.484375 17.84375 46.4375 
Q 14.5 44.390625 14.5 40.28125 
Q 14.5 37.15625 16.890625 35.375 
Q 19.28125 33.59375 26.515625 31.984375 
L 29.59375 31.296875 
Q 39.15625 29.25 43.1875 25.515625 
Q 47.21875 21.78125 47.21875 15.09375 
Q 47.21875 7.46875 41.1875 3.015625 
Q 35.15625 -1.421875 24.609375 -1.421875 
Q 20.21875 -1.421875 15.453125 -0.5625 
Q 10.6875 0.296875 5.421875 2 
L 5.421875 11.28125 
Q 10.40625 8.6875 15.234375 7.390625 
Q 20.0625 6.109375 24.8125 6.109375 
Q 31.15625 6.109375 34.5625 8.28125 
Q 37.984375 10.453125 37.984375 14.40625 
Q 37.984375 18.0625 35.515625 20.015625 
Q 33.0625 21.96875 24.703125 23.78125 
L 21.578125 24.515625 
Q 13.234375 26.265625 9.515625 29.90625 
Q 5.8125 33.546875 5.8125 39.890625 
Q 5.8125 47.609375 11.28125 51.796875 
Q 16.75 56 26.8125 56 
Q 31.78125 56 36.171875 55.265625 
Q 40.578125 54.546875 44.28125 53.078125 
z
" id="DejaVuSans-115"/>
      <path d="M 9.078125 75.984375 
L 18.109375 75.984375 
L 18.109375 31.109375 
L 44.921875 54.6875 
L 56.390625 54.6875 
L 27.390625 29.109375 
L 57.625 0 
L 45.90625 0 
L 18.109375 26.703125 
L 18.109375 0 
L 9.078125 0 
z
" id="DejaVuSans-107"/>
      <path d="M 56.203125 29.59375 
L 56.203125 25.203125 
L 14.890625 25.203125 
Q 15.484375 15.921875 20.484375 11.0625 
Q 25.484375 6.203125 34.421875 6.203125 
Q 39.59375 6.203125 44.453125 7.46875 
Q 49.3125 8.734375 54.109375 11.28125 
L 54.109375 2.78125 
Q 49.265625 0.734375 44.1875 -0.34375 
Q 39.109375 -1.421875 33.890625 -1.421875 
Q 20.796875 -1.421875 13.15625 6.1875 
Q 5.515625 13.8125 5.515625 26.8125 
Q 5.515625 40.234375 12.765625 48.109375 
Q 20.015625 56 32.328125 56 
Q 43.359375 56 49.78125 48.890625 
Q 56.203125 41.796875 56.203125 29.59375 
z
M 47.21875 32.234375 
Q 47.125 39.59375 43.09375 43.984375 
Q 39.0625 48.390625 32.421875 48.390625 
Q 24.90625 48.390625 20.390625 44.140625 
Q 15.875 39.890625 15.1875 32.171875 
z
" id="DejaVuSans-101"/>
      <path d="M 18.3125 70.21875 
L 18.3125 54.6875 
L 36.8125 54.6875 
L 36.8125 47.703125 
L 18.3125 47.703125 
L 18.3125 18.015625 
Q 18.3125 11.328125 20.140625 9.421875 
Q 21.96875 7.515625 27.59375 7.515625 
L 36.8125 7.515625 
L 36.8125 0 
L 27.59375 0 
Q 17.1875 0 13.234375 3.875 
Q 9.28125 7.765625 9.28125 18.015625 
L 9.28125 47.703125 
L 2.6875 47.703125 
L 2.6875 54.6875 
L 9.28125 54.6875 
L 9.28125 70.21875 
z
" id="DejaVuSans-116"/>
      <path d="M 48.78125 52.59375 
L 48.78125 44.1875 
Q 44.96875 46.296875 41.140625 47.34375 
Q 37.3125 48.390625 33.40625 48.390625 
Q 24.65625 48.390625 19.8125 42.84375 
Q 14.984375 37.3125 14.984375 27.296875 
Q 14.984375 17.28125 19.8125 11.734375 
Q 24.65625 6.203125 33.40625 6.203125 
Q 37.3125 6.203125 41.140625 7.25 
Q 44.96875 8.296875 48.78125 10.40625 
L 48.78125 2.09375 
Q 45.015625 0.34375 40.984375 -0.53125 
Q 36.96875 -1.421875 32.421875 -1.421875 
Q 20.0625 -1.421875 12.78125 6.34375 
Q 5.515625 14.109375 5.515625 27.296875 
Q 5.515625 40.671875 12.859375 48.328125 
Q 20.21875 56 33.015625 56 
Q 37.15625 56 41.109375 55.140625 
Q 45.0625 54.296875 48.78125 52.59375 
z
" id="DejaVuSans-99"/>
      <path d="M 54.890625 33.015625 
L 54.890625 0 
L 45.90625 0 
L 45.90625 32.71875 
Q 45.90625 40.484375 42.875 44.328125 
Q 39.84375 48.1875 33.796875 48.1875 
Q 26.515625 48.1875 22.3125 43.546875 
Q 18.109375 38.921875 18.109375 30.90625 
L 18.109375 0 
L 9.078125 0 
L 9.078125 75.984375 
L 18.109375 75.984375 
L 18.109375 46.1875 
Q 21.34375 51.125 25.703125 53.5625 
Q 30.078125 56 35.796875 56 
Q 45.21875 56 50.046875 50.171875 
Q 54.890625 44.34375 54.890625 33.015625 
z
" id="DejaVuSans-104"/>
      <path d="M 9.421875 54.6875 
L 18.40625 54.6875 
L 18.40625 0 
L 9.421875 0 
z
M 9.421875 75.984375 
L 18.40625 75.984375 
L 18.40625 64.59375 
L 9.421875 64.59375 
z
" id="DejaVuSans-105"/>
      <path d="M 54.890625 33.015625 
L 54.890625 0 
L 45.90625 0 
L 45.90625 32.71875 
Q 45.90625 40.484375 42.875 44.328125 
Q 39.84375 48.1875 33.796875 48.1875 
Q 26.515625 48.1875 22.3125 43.546875 
Q 18.109375 38.921875 18.109375 30.90625 
L 18.109375 0 
L 9.078125 0 
L 9.078125 54.6875 
L 18.109375 54.6875 
L 18.109375 46.1875 
Q 21.34375 51.125 25.703125 53.5625 
Q 30.078125 56 35.796875 56 
Q 45.21875 56 50.046875 50.171875 
Q 54.890625 44.34375 54.890625 33.015625 
z
" id="DejaVuSans-110"/>
      <path d="M 45.40625 27.984375 
Q 45.40625 37.75 41.375 43.109375 
Q 37.359375 48.484375 30.078125 48.484375 
Q 22.859375 48.484375 18.828125 43.109375 
Q 14.796875 37.75 14.796875 27.984375 
Q 14.796875 18.265625 18.828125 12.890625 
Q 22.859375 7.515625 30.078125 7.515625 
Q 37.359375 7.515625 41.375 12.890625 
Q 45.40625 18.265625 45.40625 27.984375 
z
M 54.390625 6.78125 
Q 54.390625 -7.171875 48.1875 -13.984375 
Q 42 -20.796875 29.203125 -20.796875 
Q 24.46875 -20.796875 20.265625 -20.09375 
Q 16.0625 -19.390625 12.109375 -17.921875 
L 12.109375 -9.1875 
Q 16.0625 -11.328125 19.921875 -12.34375 
Q 23.78125 -13.375 27.78125 -13.375 
Q 36.625 -13.375 41.015625 -8.765625 
Q 45.40625 -4.15625 45.40625 5.171875 
L 45.40625 9.625 
Q 42.625 4.78125 38.28125 2.390625 
Q 33.9375 0 27.875 0 
Q 17.828125 0 11.671875 7.65625 
Q 5.515625 15.328125 5.515625 27.984375 
Q 5.515625 40.671875 11.671875 48.328125 
Q 17.828125 56 27.875 56 
Q 33.9375 56 38.28125 53.609375 
Q 42.625 51.21875 45.40625 46.390625 
L 45.40625 54.6875 
L 54.390625 54.6875 
z
" id="DejaVuSans-103"/>
      <path d="M 34.28125 27.484375 
Q 23.390625 27.484375 19.1875 25 
Q 14.984375 22.515625 14.984375 16.5 
Q 14.984375 11.71875 18.140625 8.90625 
Q 21.296875 6.109375 26.703125 6.109375 
Q 34.1875 6.109375 38.703125 11.40625 
Q 43.21875 16.703125 43.21875 25.484375 
L 43.21875 27.484375 
z
M 52.203125 31.203125 
L 52.203125 0 
L 43.21875 0 
L 43.21875 8.296875 
Q 40.140625 3.328125 35.546875 0.953125 
Q 30.953125 -1.421875 24.3125 -1.421875 
Q 15.921875 -1.421875 10.953125 3.296875 
Q 6 8.015625 6 15.921875 
Q 6 25.140625 12.171875 29.828125 
Q 18.359375 34.515625 30.609375 34.515625 
L 43.21875 34.515625 
L 43.21875 35.40625 
Q 43.21875 41.609375 39.140625 45 
Q 35.0625 48.390625 27.6875 48.390625 
Q 23 48.390625 18.546875 47.265625 
Q 14.109375 46.140625 10.015625 43.890625 
L 10.015625 52.203125 
Q 14.9375 54.109375 19.578125 55.046875 
Q 24.21875 56 28.609375 56 
Q 40.484375 56 46.34375 49.84375 
Q 52.203125 43.703125 52.203125 31.203125 
z
" id="DejaVuSans-97"/>
     </defs>
     <g transform="translate(1086.492188 107.318438)scale(0.1 -0.1)">
      <use xlink:href="#DejaVuSans-48"/>
      <use x="63.623047" xlink:href="#DejaVuSans-46"/>
      <use x="95.410156" xlink:href="#DejaVuSans-49"/>
      <use x="159.033203" xlink:href="#DejaVuSans-32"/>
      <use x="190.820312" xlink:href="#DejaVuSans-115"/>
      <use x="242.919922" xlink:href="#DejaVuSans-107"/>
      <use x="297.205078" xlink:href="#DejaVuSans-101"/>
      <use x="358.728516" xlink:href="#DejaVuSans-116"/>
      <use x="397.9375" xlink:href="#DejaVuSans-99"/>
      <use x="452.917969" xlink:href="#DejaVuSans-104"/>
      <use x="516.296875" xlink:href="#DejaVuSans-105"/>
      <use x="544.080078" xlink:href="#DejaVuSans-110"/>
      <use x="607.458984" xlink:href="#DejaVuSans-103"/>
      <use x="670.935547" xlink:href="#DejaVuSans-32"/>
      <use x="702.722656" xlink:href="#DejaVuSans-114"/>
      <use x="743.835938" xlink:href="#DejaVuSans-97"/>
      <use x="805.115234" xlink:href="#DejaVuSans-116"/>
      <use x="844.324219" xlink:href="#DejaVuSans-101"/>
     </g>
    </g>
    <g id="patch_9">
     <path d="M 1058.492188 121.996563 
L 1078.492188 121.996563 
L 1078.492188 114.996563 
L 1058.492188 114.996563 
z
" style="fill:#3b528b;stroke:#3b528b;stroke-linejoin:miter;"/>
    </g>
    <g id="text_12">
     <!-- 0.325 sketching rate -->
     <g transform="translate(1086.492188 121.996563)scale(0.1 -0.1)">
      <use xlink:href="#DejaVuSans-48"/>
      <use x="63.623047" xlink:href="#DejaVuSans-46"/>
      <use x="95.410156" xlink:href="#DejaVuSans-51"/>
      <use x="159.033203" xlink:href="#DejaVuSans-50"/>
      <use x="222.65625" xlink:href="#DejaVuSans-53"/>
      <use x="286.279297" xlink:href="#DejaVuSans-32"/>
      <use x="318.066406" xlink:href="#DejaVuSans-115"/>
      <use x="370.166016" xlink:href="#DejaVuSans-107"/>
      <use x="424.451172" xlink:href="#DejaVuSans-101"/>
      <use x="485.974609" xlink:href="#DejaVuSans-116"/>
      <use x="525.183594" xlink:href="#DejaVuSans-99"/>
      <use x="580.164062" xlink:href="#DejaVuSans-104"/>
      <use x="643.542969" xlink:href="#DejaVuSans-105"/>
      <use x="671.326172" xlink:href="#DejaVuSans-110"/>
      <use x="734.705078" xlink:href="#DejaVuSans-103"/>
      <use x="798.181641" xlink:href="#DejaVuSans-32"/>
      <use x="829.96875" xlink:href="#DejaVuSans-114"/>
      <use x="871.082031" xlink:href="#DejaVuSans-97"/>
      <use x="932.361328" xlink:href="#DejaVuSans-116"/>
      <use x="971.570312" xlink:href="#DejaVuSans-101"/>
     </g>
    </g>
    <g id="patch_10">
     <path d="M 1058.492188 136.674688 
L 1078.492188 136.674688 
L 1078.492188 129.674688 
L 1058.492188 129.674688 
z
" style="fill:#21918c;stroke:#21918c;stroke-linejoin:miter;"/>
    </g>
    <g id="text_13">
     <!-- 0.55 sketching rate -->
     <g transform="translate(1086.492188 136.674688)scale(0.1 -0.1)">
      <use xlink:href="#DejaVuSans-48"/>
      <use x="63.623047" xlink:href="#DejaVuSans-46"/>
      <use x="95.410156" xlink:href="#DejaVuSans-53"/>
      <use x="159.033203" xlink:href="#DejaVuSans-53"/>
      <use x="222.65625" xlink:href="#DejaVuSans-32"/>
      <use x="254.443359" xlink:href="#DejaVuSans-115"/>
      <use x="306.542969" xlink:href="#DejaVuSans-107"/>
      <use x="360.828125" xlink:href="#DejaVuSans-101"/>
      <use x="422.351562" xlink:href="#DejaVuSans-116"/>
      <use x="461.560547" xlink:href="#DejaVuSans-99"/>
      <use x="516.541016" xlink:href="#DejaVuSans-104"/>
      <use x="579.919922" xlink:href="#DejaVuSans-105"/>
      <use x="607.703125" xlink:href="#DejaVuSans-110"/>
      <use x="671.082031" xlink:href="#DejaVuSans-103"/>
      <use x="734.558594" xlink:href="#DejaVuSans-32"/>
      <use x="766.345703" xlink:href="#DejaVuSans-114"/>
      <use x="807.458984" xlink:href="#DejaVuSans-97"/>
      <use x="868.738281" xlink:href="#DejaVuSans-116"/>
      <use x="907.947266" xlink:href="#DejaVuSans-101"/>
     </g>
    </g>
    <g id="patch_11">
     <path d="M 1058.492188 151.352813 
L 1078.492188 151.352813 
L 1078.492188 144.352813 
L 1058.492188 144.352813 
z
" style="fill:#5ec962;stroke:#5ec962;stroke-linejoin:miter;"/>
    </g>
    <g id="text_14">
     <!-- 0.775 sketching rate -->
     <defs>
      <path d="M 8.203125 72.90625 
L 55.078125 72.90625 
L 55.078125 68.703125 
L 28.609375 0 
L 18.3125 0 
L 43.21875 64.59375 
L 8.203125 64.59375 
z
" id="DejaVuSans-55"/>
     </defs>
     <g transform="translate(1086.492188 151.352813)scale(0.1 -0.1)">
      <use xlink:href="#DejaVuSans-48"/>
      <use x="63.623047" xlink:href="#DejaVuSans-46"/>
      <use x="95.410156" xlink:href="#DejaVuSans-55"/>
      <use x="159.033203" xlink:href="#DejaVuSans-55"/>
      <use x="222.65625" xlink:href="#DejaVuSans-53"/>
      <use x="286.279297" xlink:href="#DejaVuSans-32"/>
      <use x="318.066406" xlink:href="#DejaVuSans-115"/>
      <use x="370.166016" xlink:href="#DejaVuSans-107"/>
      <use x="424.451172" xlink:href="#DejaVuSans-101"/>
      <use x="485.974609" xlink:href="#DejaVuSans-116"/>
      <use x="525.183594" xlink:href="#DejaVuSans-99"/>
      <use x="580.164062" xlink:href="#DejaVuSans-104"/>
      <use x="643.542969" xlink:href="#DejaVuSans-105"/>
      <use x="671.326172" xlink:href="#DejaVuSans-110"/>
      <use x="734.705078" xlink:href="#DejaVuSans-103"/>
      <use x="798.181641" xlink:href="#DejaVuSans-32"/>
      <use x="829.96875" xlink:href="#DejaVuSans-114"/>
      <use x="871.082031" xlink:href="#DejaVuSans-97"/>
      <use x="932.361328" xlink:href="#DejaVuSans-116"/>
      <use x="971.570312" xlink:href="#DejaVuSans-101"/>
     </g>
    </g>
    <g id="patch_12">
     <path d="M 1058.492188 166.030938 
L 1078.492188 166.030938 
L 1078.492188 159.030938 
L 1058.492188 159.030938 
z
" style="fill:#fde725;stroke:#fde725;stroke-linejoin:miter;"/>
    </g>
    <g id="text_15">
     <!-- 1.0 sketching rate -->
     <g transform="translate(1086.492188 166.030938)scale(0.1 -0.1)">
      <use xlink:href="#DejaVuSans-49"/>
      <use x="63.623047" xlink:href="#DejaVuSans-46"/>
      <use x="95.410156" xlink:href="#DejaVuSans-48"/>
      <use x="159.033203" xlink:href="#DejaVuSans-32"/>
      <use x="190.820312" xlink:href="#DejaVuSans-115"/>
      <use x="242.919922" xlink:href="#DejaVuSans-107"/>
      <use x="297.205078" xlink:href="#DejaVuSans-101"/>
      <use x="358.728516" xlink:href="#DejaVuSans-116"/>
      <use x="397.9375" xlink:href="#DejaVuSans-99"/>
      <use x="452.917969" xlink:href="#DejaVuSans-104"/>
      <use x="516.296875" xlink:href="#DejaVuSans-105"/>
      <use x="544.080078" xlink:href="#DejaVuSans-110"/>
      <use x="607.458984" xlink:href="#DejaVuSans-103"/>
      <use x="670.935547" xlink:href="#DejaVuSans-32"/>
      <use x="702.722656" xlink:href="#DejaVuSans-114"/>
      <use x="743.835938" xlink:href="#DejaVuSans-97"/>
      <use x="805.115234" xlink:href="#DejaVuSans-116"/>
      <use x="844.324219" xlink:href="#DejaVuSans-101"/>
     </g>
    </g>
    <g id="line2d_10">
     <path d="M 1058.492188 177.209063 
L 1078.492188 177.209063 
" style="fill:none;stroke:#000000;stroke-linecap:square;stroke-width:1.5;"/>
    </g>
    <g id="line2d_11">
     <defs>
      <path d="M 0 3 
C 0.795609 3 1.55874 2.683901 2.12132 2.12132 
C 2.683901 1.55874 3 0.795609 3 0 
C 3 -0.795609 2.683901 -1.55874 2.12132 -2.12132 
C 1.55874 -2.683901 0.795609 -3 0 -3 
C -0.795609 -3 -1.55874 -2.683901 -2.12132 -2.12132 
C -2.683901 -1.55874 -3 -0.795609 -3 0 
C -3 0.795609 -2.683901 1.55874 -2.12132 2.12132 
C -1.55874 2.683901 -0.795609 3 0 3 
z
" id="maa6b78b91d" style="stroke:#000000;"/>
     </defs>
     <g>
      <use style="stroke:#000000;" x="1068.492188" xlink:href="#maa6b78b91d" y="177.209063"/>
     </g>
    </g>
    <g id="text_16">
     <!-- Adagrad -->
     <defs>
      <path d="M 34.1875 63.1875 
L 20.796875 26.90625 
L 47.609375 26.90625 
z
M 28.609375 72.90625 
L 39.796875 72.90625 
L 67.578125 0 
L 57.328125 0 
L 50.6875 18.703125 
L 17.828125 18.703125 
L 11.1875 0 
L 0.78125 0 
z
" id="DejaVuSans-65"/>
      <path d="M 45.40625 46.390625 
L 45.40625 75.984375 
L 54.390625 75.984375 
L 54.390625 0 
L 45.40625 0 
L 45.40625 8.203125 
Q 42.578125 3.328125 38.25 0.953125 
Q 33.9375 -1.421875 27.875 -1.421875 
Q 17.96875 -1.421875 11.734375 6.484375 
Q 5.515625 14.40625 5.515625 27.296875 
Q 5.515625 40.1875 11.734375 48.09375 
Q 17.96875 56 27.875 56 
Q 33.9375 56 38.25 53.625 
Q 42.578125 51.265625 45.40625 46.390625 
z
M 14.796875 27.296875 
Q 14.796875 17.390625 18.875 11.75 
Q 22.953125 6.109375 30.078125 6.109375 
Q 37.203125 6.109375 41.296875 11.75 
Q 45.40625 17.390625 45.40625 27.296875 
Q 45.40625 37.203125 41.296875 42.84375 
Q 37.203125 48.484375 30.078125 48.484375 
Q 22.953125 48.484375 18.875 42.84375 
Q 14.796875 37.203125 14.796875 27.296875 
z
" id="DejaVuSans-100"/>
     </defs>
     <g transform="translate(1086.492188 180.709063)scale(0.1 -0.1)">
      <use xlink:href="#DejaVuSans-65"/>
      <use x="66.658203" xlink:href="#DejaVuSans-100"/>
      <use x="130.134766" xlink:href="#DejaVuSans-97"/>
      <use x="191.414062" xlink:href="#DejaVuSans-103"/>
      <use x="254.890625" xlink:href="#DejaVuSans-114"/>
      <use x="296.003906" xlink:href="#DejaVuSans-97"/>
      <use x="357.283203" xlink:href="#DejaVuSans-100"/>
     </g>
    </g>
    <g id="line2d_12">
     <path d="M 1058.492188 191.887188 
L 1078.492188 191.887188 
" style="fill:none;stroke:#000000;stroke-linecap:square;stroke-width:1.5;"/>
    </g>
    <g id="line2d_13">
     <defs>
      <path d="M -3 3 
L 3 -3 
M -3 -3 
L 3 3 
" id="mcfb903c605" style="stroke:#000000;"/>
     </defs>
     <g>
      <use style="stroke:#000000;" x="1068.492188" xlink:href="#mcfb903c605" y="191.887188"/>
     </g>
    </g>
    <g id="text_17">
     <!-- Sketched ALS -->
     <defs>
      <path d="M 53.515625 70.515625 
L 53.515625 60.890625 
Q 47.90625 63.578125 42.921875 64.890625 
Q 37.9375 66.21875 33.296875 66.21875 
Q 25.25 66.21875 20.875 63.09375 
Q 16.5 59.96875 16.5 54.203125 
Q 16.5 49.359375 19.40625 46.890625 
Q 22.3125 44.4375 30.421875 42.921875 
L 36.375 41.703125 
Q 47.40625 39.59375 52.65625 34.296875 
Q 57.90625 29 57.90625 20.125 
Q 57.90625 9.515625 50.796875 4.046875 
Q 43.703125 -1.421875 29.984375 -1.421875 
Q 24.8125 -1.421875 18.96875 -0.25 
Q 13.140625 0.921875 6.890625 3.21875 
L 6.890625 13.375 
Q 12.890625 10.015625 18.65625 8.296875 
Q 24.421875 6.59375 29.984375 6.59375 
Q 38.421875 6.59375 43.015625 9.90625 
Q 47.609375 13.234375 47.609375 19.390625 
Q 47.609375 24.75 44.3125 27.78125 
Q 41.015625 30.8125 33.5 32.328125 
L 27.484375 33.5 
Q 16.453125 35.6875 11.515625 40.375 
Q 6.59375 45.0625 6.59375 53.421875 
Q 6.59375 63.09375 13.40625 68.65625 
Q 20.21875 74.21875 32.171875 74.21875 
Q 37.3125 74.21875 42.625 73.28125 
Q 47.953125 72.359375 53.515625 70.515625 
z
" id="DejaVuSans-83"/>
      <path d="M 9.8125 72.90625 
L 19.671875 72.90625 
L 19.671875 8.296875 
L 55.171875 8.296875 
L 55.171875 0 
L 9.8125 0 
z
" id="DejaVuSans-76"/>
     </defs>
     <g transform="translate(1086.492188 195.387188)scale(0.1 -0.1)">
      <use xlink:href="#DejaVuSans-83"/>
      <use x="63.476562" xlink:href="#DejaVuSans-107"/>
      <use x="117.761719" xlink:href="#DejaVuSans-101"/>
      <use x="179.285156" xlink:href="#DejaVuSans-116"/>
      <use x="218.494141" xlink:href="#DejaVuSans-99"/>
      <use x="273.474609" xlink:href="#DejaVuSans-104"/>
      <use x="336.853516" xlink:href="#DejaVuSans-101"/>
      <use x="398.376953" xlink:href="#DejaVuSans-100"/>
      <use x="461.853516" xlink:href="#DejaVuSans-32"/>
      <use x="493.640625" xlink:href="#DejaVuSans-65"/>
      <use x="562.048828" xlink:href="#DejaVuSans-76"/>
      <use x="617.761719" xlink:href="#DejaVuSans-83"/>
     </g>
    </g>
   </g>
  </g>
  <g id="axes_2">
   <g id="patch_13">
    <path d="M 166.5 672.84 
L 1198.8 672.84 
L 1198.8 408.24 
L 166.5 408.24 
z
" style="fill:#ffffff;"/>
   </g>
   <g id="matplotlib.axis_3">
    <g id="xtick_7">
     <g id="line2d_14">
      <g>
       <use style="stroke:#000000;stroke-width:0.8;" x="213.422727" xlink:href="#m16cda34a79" y="672.84"/>
      </g>
     </g>
     <g id="text_18">
      <!-- 0 -->
      <g transform="translate(210.241477 687.438437)scale(0.1 -0.1)">
       <use xlink:href="#DejaVuSans-48"/>
      </g>
     </g>
    </g>
    <g id="xtick_8">
     <g id="line2d_15">
      <g>
       <use style="stroke:#000000;stroke-width:0.8;" x="413.823582" xlink:href="#m16cda34a79" y="672.84"/>
      </g>
     </g>
     <g id="text_19">
      <!-- 50 -->
      <g transform="translate(407.461082 687.438437)scale(0.1 -0.1)">
       <use xlink:href="#DejaVuSans-53"/>
       <use x="63.623047" xlink:href="#DejaVuSans-48"/>
      </g>
     </g>
    </g>
    <g id="xtick_9">
     <g id="line2d_16">
      <g>
       <use style="stroke:#000000;stroke-width:0.8;" x="614.224438" xlink:href="#m16cda34a79" y="672.84"/>
      </g>
     </g>
     <g id="text_20">
      <!-- 100 -->
      <g transform="translate(604.680688 687.438437)scale(0.1 -0.1)">
       <use xlink:href="#DejaVuSans-49"/>
       <use x="63.623047" xlink:href="#DejaVuSans-48"/>
       <use x="127.246094" xlink:href="#DejaVuSans-48"/>
      </g>
     </g>
    </g>
    <g id="xtick_10">
     <g id="line2d_17">
      <g>
       <use style="stroke:#000000;stroke-width:0.8;" x="814.625293" xlink:href="#m16cda34a79" y="672.84"/>
      </g>
     </g>
     <g id="text_21">
      <!-- 150 -->
      <g transform="translate(805.081543 687.438437)scale(0.1 -0.1)">
       <use xlink:href="#DejaVuSans-49"/>
       <use x="63.623047" xlink:href="#DejaVuSans-53"/>
       <use x="127.246094" xlink:href="#DejaVuSans-48"/>
      </g>
     </g>
    </g>
    <g id="xtick_11">
     <g id="line2d_18">
      <g>
       <use style="stroke:#000000;stroke-width:0.8;" x="1015.026148" xlink:href="#m16cda34a79" y="672.84"/>
      </g>
     </g>
     <g id="text_22">
      <!-- 200 -->
      <g transform="translate(1005.482398 687.438437)scale(0.1 -0.1)">
       <use xlink:href="#DejaVuSans-50"/>
       <use x="63.623047" xlink:href="#DejaVuSans-48"/>
       <use x="127.246094" xlink:href="#DejaVuSans-48"/>
      </g>
     </g>
    </g>
   </g>
   <g id="matplotlib.axis_4">
    <g id="ytick_4">
     <g id="line2d_19">
      <g>
       <use style="stroke:#000000;stroke-width:0.6;" x="166.5" xlink:href="#m305fdd0336" y="570.755003"/>
      </g>
     </g>
     <g id="text_23">
      <!-- $\mathdefault{2\times10^{-1}}$ -->
      <defs>
       <path d="M 10.59375 35.5 
L 73.1875 35.5 
L 73.1875 27.203125 
L 10.59375 27.203125 
z
" id="DejaVuSans-8722"/>
      </defs>
      <g transform="translate(119 574.554222)scale(0.1 -0.1)">
       <use transform="translate(0 0.684375)" xlink:href="#DejaVuSans-50"/>
       <use transform="translate(83.105469 0.684375)" xlink:href="#DejaVuSans-215"/>
       <use transform="translate(186.376953 0.684375)" xlink:href="#DejaVuSans-49"/>
       <use transform="translate(250 0.684375)" xlink:href="#DejaVuSans-48"/>
       <use transform="translate(314.580078 38.965625)scale(0.7)" xlink:href="#DejaVuSans-8722"/>
       <use transform="translate(373.232422 38.965625)scale(0.7)" xlink:href="#DejaVuSans-49"/>
      </g>
     </g>
    </g>
    <g id="ytick_5">
     <g id="line2d_20">
      <g>
       <use style="stroke:#000000;stroke-width:0.6;" x="166.5" xlink:href="#m305fdd0336" y="470.856942"/>
      </g>
     </g>
     <g id="text_24">
      <!-- $\mathdefault{3\times10^{-1}}$ -->
      <g transform="translate(119 474.65616)scale(0.1 -0.1)">
       <use transform="translate(0 0.684375)" xlink:href="#DejaVuSans-51"/>
       <use transform="translate(83.105469 0.684375)" xlink:href="#DejaVuSans-215"/>
       <use transform="translate(186.376953 0.684375)" xlink:href="#DejaVuSans-49"/>
       <use transform="translate(250 0.684375)" xlink:href="#DejaVuSans-48"/>
       <use transform="translate(314.580078 38.965625)scale(0.7)" xlink:href="#DejaVuSans-8722"/>
       <use transform="translate(373.232422 38.965625)scale(0.7)" xlink:href="#DejaVuSans-49"/>
      </g>
     </g>
    </g>
   </g>
   <g id="line2d_21">
    <path clip-path="url(#p9715109731)" d="M 213.422727 570.755003 
L 320.217964 454.674262 
L 470.443869 445.01068 
L 802.956472 435.876405 
L 902.229522 430.014006 
L 1067.812921 424.929951 
L 1151.877273 420.267273 
" style="fill:none;stroke:#440154;stroke-linecap:square;stroke-width:1.5;"/>
    <g clip-path="url(#p9715109731)">
     <use style="fill:#440154;stroke:#440154;" x="213.422727" xlink:href="#m48c8635d21" y="570.755003"/>
     <use style="fill:#440154;stroke:#440154;" x="320.217964" xlink:href="#m48c8635d21" y="454.674262"/>
     <use style="fill:#440154;stroke:#440154;" x="470.443869" xlink:href="#m48c8635d21" y="445.01068"/>
     <use style="fill:#440154;stroke:#440154;" x="802.956472" xlink:href="#m48c8635d21" y="435.876405"/>
     <use style="fill:#440154;stroke:#440154;" x="902.229522" xlink:href="#m48c8635d21" y="430.014006"/>
     <use style="fill:#440154;stroke:#440154;" x="1067.812921" xlink:href="#m48c8635d21" y="424.929951"/>
     <use style="fill:#440154;stroke:#440154;" x="1151.877273" xlink:href="#m48c8635d21" y="420.267273"/>
    </g>
   </g>
   <g id="line2d_22">
    <path clip-path="url(#p9715109731)" d="M 213.422727 570.755003 
L 320.217964 584.650551 
L 470.443869 588.016691 
L 802.956472 590.500653 
L 902.229522 591.308858 
L 1067.812921 592.102128 
L 1151.877273 592.802769 
" style="fill:none;stroke:#3b528b;stroke-linecap:square;stroke-width:1.5;"/>
    <g clip-path="url(#p9715109731)">
     <use style="fill:#3b528b;stroke:#3b528b;" x="213.422727" xlink:href="#mdf080314b1" y="570.755003"/>
     <use style="fill:#3b528b;stroke:#3b528b;" x="320.217964" xlink:href="#mdf080314b1" y="584.650551"/>
     <use style="fill:#3b528b;stroke:#3b528b;" x="470.443869" xlink:href="#mdf080314b1" y="588.016691"/>
     <use style="fill:#3b528b;stroke:#3b528b;" x="802.956472" xlink:href="#mdf080314b1" y="590.500653"/>
     <use style="fill:#3b528b;stroke:#3b528b;" x="902.229522" xlink:href="#mdf080314b1" y="591.308858"/>
     <use style="fill:#3b528b;stroke:#3b528b;" x="1067.812921" xlink:href="#mdf080314b1" y="592.102128"/>
     <use style="fill:#3b528b;stroke:#3b528b;" x="1151.877273" xlink:href="#mdf080314b1" y="592.802769"/>
    </g>
   </g>
   <g id="line2d_23">
    <path clip-path="url(#p9715109731)" d="M 213.422727 570.755003 
L 320.217964 608.742923 
L 470.443869 612.198063 
L 802.956472 616.895521 
L 902.229522 620.414948 
L 1067.812921 623.129663 
L 1151.877273 625.73659 
" style="fill:none;stroke:#21918c;stroke-linecap:square;stroke-width:1.5;"/>
    <g clip-path="url(#p9715109731)">
     <use style="fill:#21918c;stroke:#21918c;" x="213.422727" xlink:href="#mc504eb93c1" y="570.755003"/>
     <use style="fill:#21918c;stroke:#21918c;" x="320.217964" xlink:href="#mc504eb93c1" y="608.742923"/>
     <use style="fill:#21918c;stroke:#21918c;" x="470.443869" xlink:href="#mc504eb93c1" y="612.198063"/>
     <use style="fill:#21918c;stroke:#21918c;" x="802.956472" xlink:href="#mc504eb93c1" y="616.895521"/>
     <use style="fill:#21918c;stroke:#21918c;" x="902.229522" xlink:href="#mc504eb93c1" y="620.414948"/>
     <use style="fill:#21918c;stroke:#21918c;" x="1067.812921" xlink:href="#mc504eb93c1" y="623.129663"/>
     <use style="fill:#21918c;stroke:#21918c;" x="1151.877273" xlink:href="#mc504eb93c1" y="625.73659"/>
    </g>
   </g>
   <g id="line2d_24">
    <path clip-path="url(#p9715109731)" d="M 213.422727 570.755003 
L 320.217964 619.143934 
L 470.443869 624.254467 
L 802.956472 629.876396 
L 902.229522 634.081131 
L 1067.812921 637.947309 
L 1151.877273 641.673369 
" style="fill:none;stroke:#5ec962;stroke-linecap:square;stroke-width:1.5;"/>
    <g clip-path="url(#p9715109731)">
     <use style="fill:#5ec962;stroke:#5ec962;" x="213.422727" xlink:href="#m42eab66e9d" y="570.755003"/>
     <use style="fill:#5ec962;stroke:#5ec962;" x="320.217964" xlink:href="#m42eab66e9d" y="619.143934"/>
     <use style="fill:#5ec962;stroke:#5ec962;" x="470.443869" xlink:href="#m42eab66e9d" y="624.254467"/>
     <use style="fill:#5ec962;stroke:#5ec962;" x="802.956472" xlink:href="#m42eab66e9d" y="629.876396"/>
     <use style="fill:#5ec962;stroke:#5ec962;" x="902.229522" xlink:href="#m42eab66e9d" y="634.081131"/>
     <use style="fill:#5ec962;stroke:#5ec962;" x="1067.812921" xlink:href="#m42eab66e9d" y="637.947309"/>
     <use style="fill:#5ec962;stroke:#5ec962;" x="1151.877273" xlink:href="#m42eab66e9d" y="641.673369"/>
    </g>
   </g>
   <g id="line2d_25">
    <path clip-path="url(#p9715109731)" d="M 213.422727 570.755003 
L 320.217964 633.806112 
L 470.443869 641.054883 
L 802.956472 647.513451 
L 902.229522 652.109617 
L 1067.812921 656.59166 
L 1151.877273 660.812727 
" style="fill:none;stroke:#fde725;stroke-linecap:square;stroke-width:1.5;"/>
    <g clip-path="url(#p9715109731)">
     <use style="fill:#fde725;stroke:#fde725;" x="213.422727" xlink:href="#mf836c9e231" y="570.755003"/>
     <use style="fill:#fde725;stroke:#fde725;" x="320.217964" xlink:href="#mf836c9e231" y="633.806112"/>
     <use style="fill:#fde725;stroke:#fde725;" x="470.443869" xlink:href="#mf836c9e231" y="641.054883"/>
     <use style="fill:#fde725;stroke:#fde725;" x="802.956472" xlink:href="#mf836c9e231" y="647.513451"/>
     <use style="fill:#fde725;stroke:#fde725;" x="902.229522" xlink:href="#mf836c9e231" y="652.109617"/>
     <use style="fill:#fde725;stroke:#fde725;" x="1067.812921" xlink:href="#mf836c9e231" y="656.59166"/>
     <use style="fill:#fde725;stroke:#fde725;" x="1151.877273" xlink:href="#mf836c9e231" y="660.812727"/>
    </g>
   </g>
   <g id="patch_14">
    <path d="M 166.5 672.84 
L 166.5 408.24 
" style="fill:none;stroke:#000000;stroke-linecap:square;stroke-linejoin:miter;stroke-width:0.8;"/>
   </g>
   <g id="patch_15">
    <path d="M 1198.8 672.84 
L 1198.8 408.24 
" style="fill:none;stroke:#000000;stroke-linecap:square;stroke-linejoin:miter;stroke-width:0.8;"/>
   </g>
   <g id="patch_16">
    <path d="M 166.5 672.84 
L 1198.8 672.84 
" style="fill:none;stroke:#000000;stroke-linecap:square;stroke-linejoin:miter;stroke-width:0.8;"/>
   </g>
   <g id="patch_17">
    <path d="M 166.5 408.24 
L 1198.8 408.24 
" style="fill:none;stroke:#000000;stroke-linecap:square;stroke-linejoin:miter;stroke-width:0.8;"/>
   </g>
   <g id="text_25">
    <!-- Probability Wieghts -->
    <defs>
     <path d="M 19.671875 64.796875 
L 19.671875 37.40625 
L 32.078125 37.40625 
Q 38.96875 37.40625 42.71875 40.96875 
Q 46.484375 44.53125 46.484375 51.125 
Q 46.484375 57.671875 42.71875 61.234375 
Q 38.96875 64.796875 32.078125 64.796875 
z
M 9.8125 72.90625 
L 32.078125 72.90625 
Q 44.34375 72.90625 50.609375 67.359375 
Q 56.890625 61.8125 56.890625 51.125 
Q 56.890625 40.328125 50.609375 34.8125 
Q 44.34375 29.296875 32.078125 29.296875 
L 19.671875 29.296875 
L 19.671875 0 
L 9.8125 0 
z
" id="DejaVuSans-80"/>
     <path d="M 48.6875 27.296875 
Q 48.6875 37.203125 44.609375 42.84375 
Q 40.53125 48.484375 33.40625 48.484375 
Q 26.265625 48.484375 22.1875 42.84375 
Q 18.109375 37.203125 18.109375 27.296875 
Q 18.109375 17.390625 22.1875 11.75 
Q 26.265625 6.109375 33.40625 6.109375 
Q 40.53125 6.109375 44.609375 11.75 
Q 48.6875 17.390625 48.6875 27.296875 
z
M 18.109375 46.390625 
Q 20.953125 51.265625 25.265625 53.625 
Q 29.59375 56 35.59375 56 
Q 45.5625 56 51.78125 48.09375 
Q 58.015625 40.1875 58.015625 27.296875 
Q 58.015625 14.40625 51.78125 6.484375 
Q 45.5625 -1.421875 35.59375 -1.421875 
Q 29.59375 -1.421875 25.265625 0.953125 
Q 20.953125 3.328125 18.109375 8.203125 
L 18.109375 0 
L 9.078125 0 
L 9.078125 75.984375 
L 18.109375 75.984375 
z
" id="DejaVuSans-98"/>
     <path d="M 9.421875 75.984375 
L 18.40625 75.984375 
L 18.40625 0 
L 9.421875 0 
z
" id="DejaVuSans-108"/>
     <path d="M 32.171875 -5.078125 
Q 28.375 -14.84375 24.75 -17.8125 
Q 21.140625 -20.796875 15.09375 -20.796875 
L 7.90625 -20.796875 
L 7.90625 -13.28125 
L 13.1875 -13.28125 
Q 16.890625 -13.28125 18.9375 -11.515625 
Q 21 -9.765625 23.484375 -3.21875 
L 25.09375 0.875 
L 2.984375 54.6875 
L 12.5 54.6875 
L 29.59375 11.921875 
L 46.6875 54.6875 
L 56.203125 54.6875 
z
" id="DejaVuSans-121"/>
     <path d="M 3.328125 72.90625 
L 13.28125 72.90625 
L 28.609375 11.28125 
L 43.890625 72.90625 
L 54.984375 72.90625 
L 70.3125 11.28125 
L 85.59375 72.90625 
L 95.609375 72.90625 
L 77.296875 0 
L 64.890625 0 
L 49.515625 63.28125 
L 33.984375 0 
L 21.578125 0 
z
" id="DejaVuSans-87"/>
    </defs>
    <g transform="translate(624.782812 402.24)scale(0.12 -0.12)">
     <use xlink:href="#DejaVuSans-80"/>
     <use x="58.552734" xlink:href="#DejaVuSans-114"/>
     <use x="97.416016" xlink:href="#DejaVuSans-111"/>
     <use x="158.597656" xlink:href="#DejaVuSans-98"/>
     <use x="222.074219" xlink:href="#DejaVuSans-97"/>
     <use x="283.353516" xlink:href="#DejaVuSans-98"/>
     <use x="346.830078" xlink:href="#DejaVuSans-105"/>
     <use x="374.613281" xlink:href="#DejaVuSans-108"/>
     <use x="402.396484" xlink:href="#DejaVuSans-105"/>
     <use x="430.179688" xlink:href="#DejaVuSans-116"/>
     <use x="469.388672" xlink:href="#DejaVuSans-121"/>
     <use x="528.568359" xlink:href="#DejaVuSans-32"/>
     <use x="560.355469" xlink:href="#DejaVuSans-87"/>
     <use x="656.982422" xlink:href="#DejaVuSans-105"/>
     <use x="684.765625" xlink:href="#DejaVuSans-101"/>
     <use x="746.289062" xlink:href="#DejaVuSans-103"/>
     <use x="809.765625" xlink:href="#DejaVuSans-104"/>
     <use x="873.144531" xlink:href="#DejaVuSans-116"/>
     <use x="912.353516" xlink:href="#DejaVuSans-115"/>
    </g>
   </g>
   <g id="legend_2">
    <g id="patch_18">
     <path d="M 173.5 518.986875 
L 308.807813 518.986875 
Q 310.807813 518.986875 310.807813 516.986875 
L 310.807813 415.24 
Q 310.807813 413.24 308.807813 413.24 
L 173.5 413.24 
Q 171.5 413.24 171.5 415.24 
L 171.5 516.986875 
Q 171.5 518.986875 173.5 518.986875 
z
" style="fill:#ffffff;opacity:0.8;stroke:#cccccc;stroke-linejoin:miter;"/>
    </g>
    <g id="patch_19">
     <path d="M 175.5 424.838437 
L 195.5 424.838437 
L 195.5 417.838437 
L 175.5 417.838437 
z
" style="fill:#440154;stroke:#440154;stroke-linejoin:miter;"/>
    </g>
    <g id="text_26">
     <!-- 0.1 sketching rate -->
     <g transform="translate(203.5 424.838437)scale(0.1 -0.1)">
      <use xlink:href="#DejaVuSans-48"/>
      <use x="63.623047" xlink:href="#DejaVuSans-46"/>
      <use x="95.410156" xlink:href="#DejaVuSans-49"/>
      <use x="159.033203" xlink:href="#DejaVuSans-32"/>
      <use x="190.820312" xlink:href="#DejaVuSans-115"/>
      <use x="242.919922" xlink:href="#DejaVuSans-107"/>
      <use x="297.205078" xlink:href="#DejaVuSans-101"/>
      <use x="358.728516" xlink:href="#DejaVuSans-116"/>
      <use x="397.9375" xlink:href="#DejaVuSans-99"/>
      <use x="452.917969" xlink:href="#DejaVuSans-104"/>
      <use x="516.296875" xlink:href="#DejaVuSans-105"/>
      <use x="544.080078" xlink:href="#DejaVuSans-110"/>
      <use x="607.458984" xlink:href="#DejaVuSans-103"/>
      <use x="670.935547" xlink:href="#DejaVuSans-32"/>
      <use x="702.722656" xlink:href="#DejaVuSans-114"/>
      <use x="743.835938" xlink:href="#DejaVuSans-97"/>
      <use x="805.115234" xlink:href="#DejaVuSans-116"/>
      <use x="844.324219" xlink:href="#DejaVuSans-101"/>
     </g>
    </g>
    <g id="patch_20">
     <path d="M 175.5 439.516563 
L 195.5 439.516563 
L 195.5 432.516563 
L 175.5 432.516563 
z
" style="fill:#3b528b;stroke:#3b528b;stroke-linejoin:miter;"/>
    </g>
    <g id="text_27">
     <!-- 0.325 sketching rate -->
     <g transform="translate(203.5 439.516563)scale(0.1 -0.1)">
      <use xlink:href="#DejaVuSans-48"/>
      <use x="63.623047" xlink:href="#DejaVuSans-46"/>
      <use x="95.410156" xlink:href="#DejaVuSans-51"/>
      <use x="159.033203" xlink:href="#DejaVuSans-50"/>
      <use x="222.65625" xlink:href="#DejaVuSans-53"/>
      <use x="286.279297" xlink:href="#DejaVuSans-32"/>
      <use x="318.066406" xlink:href="#DejaVuSans-115"/>
      <use x="370.166016" xlink:href="#DejaVuSans-107"/>
      <use x="424.451172" xlink:href="#DejaVuSans-101"/>
      <use x="485.974609" xlink:href="#DejaVuSans-116"/>
      <use x="525.183594" xlink:href="#DejaVuSans-99"/>
      <use x="580.164062" xlink:href="#DejaVuSans-104"/>
      <use x="643.542969" xlink:href="#DejaVuSans-105"/>
      <use x="671.326172" xlink:href="#DejaVuSans-110"/>
      <use x="734.705078" xlink:href="#DejaVuSans-103"/>
      <use x="798.181641" xlink:href="#DejaVuSans-32"/>
      <use x="829.96875" xlink:href="#DejaVuSans-114"/>
      <use x="871.082031" xlink:href="#DejaVuSans-97"/>
      <use x="932.361328" xlink:href="#DejaVuSans-116"/>
      <use x="971.570312" xlink:href="#DejaVuSans-101"/>
     </g>
    </g>
    <g id="patch_21">
     <path d="M 175.5 454.194687 
L 195.5 454.194687 
L 195.5 447.194687 
L 175.5 447.194687 
z
" style="fill:#21918c;stroke:#21918c;stroke-linejoin:miter;"/>
    </g>
    <g id="text_28">
     <!-- 0.55 sketching rate -->
     <g transform="translate(203.5 454.194687)scale(0.1 -0.1)">
      <use xlink:href="#DejaVuSans-48"/>
      <use x="63.623047" xlink:href="#DejaVuSans-46"/>
      <use x="95.410156" xlink:href="#DejaVuSans-53"/>
      <use x="159.033203" xlink:href="#DejaVuSans-53"/>
      <use x="222.65625" xlink:href="#DejaVuSans-32"/>
      <use x="254.443359" xlink:href="#DejaVuSans-115"/>
      <use x="306.542969" xlink:href="#DejaVuSans-107"/>
      <use x="360.828125" xlink:href="#DejaVuSans-101"/>
      <use x="422.351562" xlink:href="#DejaVuSans-116"/>
      <use x="461.560547" xlink:href="#DejaVuSans-99"/>
      <use x="516.541016" xlink:href="#DejaVuSans-104"/>
      <use x="579.919922" xlink:href="#DejaVuSans-105"/>
      <use x="607.703125" xlink:href="#DejaVuSans-110"/>
      <use x="671.082031" xlink:href="#DejaVuSans-103"/>
      <use x="734.558594" xlink:href="#DejaVuSans-32"/>
      <use x="766.345703" xlink:href="#DejaVuSans-114"/>
      <use x="807.458984" xlink:href="#DejaVuSans-97"/>
      <use x="868.738281" xlink:href="#DejaVuSans-116"/>
      <use x="907.947266" xlink:href="#DejaVuSans-101"/>
     </g>
    </g>
    <g id="patch_22">
     <path d="M 175.5 468.872813 
L 195.5 468.872813 
L 195.5 461.872813 
L 175.5 461.872813 
z
" style="fill:#5ec962;stroke:#5ec962;stroke-linejoin:miter;"/>
    </g>
    <g id="text_29">
     <!-- 0.775 sketching rate -->
     <g transform="translate(203.5 468.872813)scale(0.1 -0.1)">
      <use xlink:href="#DejaVuSans-48"/>
      <use x="63.623047" xlink:href="#DejaVuSans-46"/>
      <use x="95.410156" xlink:href="#DejaVuSans-55"/>
      <use x="159.033203" xlink:href="#DejaVuSans-55"/>
      <use x="222.65625" xlink:href="#DejaVuSans-53"/>
      <use x="286.279297" xlink:href="#DejaVuSans-32"/>
      <use x="318.066406" xlink:href="#DejaVuSans-115"/>
      <use x="370.166016" xlink:href="#DejaVuSans-107"/>
      <use x="424.451172" xlink:href="#DejaVuSans-101"/>
      <use x="485.974609" xlink:href="#DejaVuSans-116"/>
      <use x="525.183594" xlink:href="#DejaVuSans-99"/>
      <use x="580.164062" xlink:href="#DejaVuSans-104"/>
      <use x="643.542969" xlink:href="#DejaVuSans-105"/>
      <use x="671.326172" xlink:href="#DejaVuSans-110"/>
      <use x="734.705078" xlink:href="#DejaVuSans-103"/>
      <use x="798.181641" xlink:href="#DejaVuSans-32"/>
      <use x="829.96875" xlink:href="#DejaVuSans-114"/>
      <use x="871.082031" xlink:href="#DejaVuSans-97"/>
      <use x="932.361328" xlink:href="#DejaVuSans-116"/>
      <use x="971.570312" xlink:href="#DejaVuSans-101"/>
     </g>
    </g>
    <g id="patch_23">
     <path d="M 175.5 483.550938 
L 195.5 483.550938 
L 195.5 476.550938 
L 175.5 476.550938 
z
" style="fill:#fde725;stroke:#fde725;stroke-linejoin:miter;"/>
    </g>
    <g id="text_30">
     <!-- 1.0 sketching rate -->
     <g transform="translate(203.5 483.550938)scale(0.1 -0.1)">
      <use xlink:href="#DejaVuSans-49"/>
      <use x="63.623047" xlink:href="#DejaVuSans-46"/>
      <use x="95.410156" xlink:href="#DejaVuSans-48"/>
      <use x="159.033203" xlink:href="#DejaVuSans-32"/>
      <use x="190.820312" xlink:href="#DejaVuSans-115"/>
      <use x="242.919922" xlink:href="#DejaVuSans-107"/>
      <use x="297.205078" xlink:href="#DejaVuSans-101"/>
      <use x="358.728516" xlink:href="#DejaVuSans-116"/>
      <use x="397.9375" xlink:href="#DejaVuSans-99"/>
      <use x="452.917969" xlink:href="#DejaVuSans-104"/>
      <use x="516.296875" xlink:href="#DejaVuSans-105"/>
      <use x="544.080078" xlink:href="#DejaVuSans-110"/>
      <use x="607.458984" xlink:href="#DejaVuSans-103"/>
      <use x="670.935547" xlink:href="#DejaVuSans-32"/>
      <use x="702.722656" xlink:href="#DejaVuSans-114"/>
      <use x="743.835938" xlink:href="#DejaVuSans-97"/>
      <use x="805.115234" xlink:href="#DejaVuSans-116"/>
      <use x="844.324219" xlink:href="#DejaVuSans-101"/>
     </g>
    </g>
    <g id="line2d_26">
     <path d="M 175.5 494.729062 
L 195.5 494.729062 
" style="fill:none;stroke:#000000;stroke-linecap:square;stroke-width:1.5;"/>
    </g>
    <g id="line2d_27">
     <g>
      <use style="stroke:#000000;" x="185.5" xlink:href="#maa6b78b91d" y="494.729062"/>
     </g>
    </g>
    <g id="text_31">
     <!-- Adagrad -->
     <g transform="translate(203.5 498.229062)scale(0.1 -0.1)">
      <use xlink:href="#DejaVuSans-65"/>
      <use x="66.658203" xlink:href="#DejaVuSans-100"/>
      <use x="130.134766" xlink:href="#DejaVuSans-97"/>
      <use x="191.414062" xlink:href="#DejaVuSans-103"/>
      <use x="254.890625" xlink:href="#DejaVuSans-114"/>
      <use x="296.003906" xlink:href="#DejaVuSans-97"/>
      <use x="357.283203" xlink:href="#DejaVuSans-100"/>
     </g>
    </g>
    <g id="line2d_28">
     <path d="M 175.5 509.407187 
L 195.5 509.407187 
" style="fill:none;stroke:#000000;stroke-linecap:square;stroke-width:1.5;"/>
    </g>
    <g id="line2d_29">
     <g>
      <use style="stroke:#000000;" x="185.5" xlink:href="#mcfb903c605" y="509.407187"/>
     </g>
    </g>
    <g id="text_32">
     <!-- Sketched ALS -->
     <g transform="translate(203.5 512.907187)scale(0.1 -0.1)">
      <use xlink:href="#DejaVuSans-83"/>
      <use x="63.476562" xlink:href="#DejaVuSans-107"/>
      <use x="117.761719" xlink:href="#DejaVuSans-101"/>
      <use x="179.285156" xlink:href="#DejaVuSans-116"/>
      <use x="218.494141" xlink:href="#DejaVuSans-99"/>
      <use x="273.474609" xlink:href="#DejaVuSans-104"/>
      <use x="336.853516" xlink:href="#DejaVuSans-101"/>
      <use x="398.376953" xlink:href="#DejaVuSans-100"/>
      <use x="461.853516" xlink:href="#DejaVuSans-32"/>
      <use x="493.640625" xlink:href="#DejaVuSans-65"/>
      <use x="562.048828" xlink:href="#DejaVuSans-76"/>
      <use x="617.761719" xlink:href="#DejaVuSans-83"/>
     </g>
    </g>
   </g>
  </g>
  <g id="text_33">
   <!-- Error and Weights for Decomposition -->
   <defs>
    <path d="M 37.109375 75.984375 
L 37.109375 68.5 
L 28.515625 68.5 
Q 23.6875 68.5 21.796875 66.546875 
Q 19.921875 64.59375 19.921875 59.515625 
L 19.921875 54.6875 
L 34.71875 54.6875 
L 34.71875 47.703125 
L 19.921875 47.703125 
L 19.921875 0 
L 10.890625 0 
L 10.890625 47.703125 
L 2.296875 47.703125 
L 2.296875 54.6875 
L 10.890625 54.6875 
L 10.890625 58.5 
Q 10.890625 67.625 15.140625 71.796875 
Q 19.390625 75.984375 28.609375 75.984375 
z
" id="DejaVuSans-102"/>
    <path d="M 19.671875 64.796875 
L 19.671875 8.109375 
L 31.59375 8.109375 
Q 46.6875 8.109375 53.6875 14.9375 
Q 60.6875 21.78125 60.6875 36.53125 
Q 60.6875 51.171875 53.6875 57.984375 
Q 46.6875 64.796875 31.59375 64.796875 
z
M 9.8125 72.90625 
L 30.078125 72.90625 
Q 51.265625 72.90625 61.171875 64.09375 
Q 71.09375 55.28125 71.09375 36.53125 
Q 71.09375 17.671875 61.125 8.828125 
Q 51.171875 0 30.078125 0 
L 9.8125 0 
z
" id="DejaVuSans-68"/>
    <path d="M 52 44.1875 
Q 55.375 50.25 60.0625 53.125 
Q 64.75 56 71.09375 56 
Q 79.640625 56 84.28125 50.015625 
Q 88.921875 44.046875 88.921875 33.015625 
L 88.921875 0 
L 79.890625 0 
L 79.890625 32.71875 
Q 79.890625 40.578125 77.09375 44.375 
Q 74.3125 48.1875 68.609375 48.1875 
Q 61.625 48.1875 57.5625 43.546875 
Q 53.515625 38.921875 53.515625 30.90625 
L 53.515625 0 
L 44.484375 0 
L 44.484375 32.71875 
Q 44.484375 40.625 41.703125 44.40625 
Q 38.921875 48.1875 33.109375 48.1875 
Q 26.21875 48.1875 22.15625 43.53125 
Q 18.109375 38.875 18.109375 30.90625 
L 18.109375 0 
L 9.078125 0 
L 9.078125 54.6875 
L 18.109375 54.6875 
L 18.109375 46.1875 
Q 21.1875 51.21875 25.484375 53.609375 
Q 29.78125 56 35.6875 56 
Q 41.65625 56 45.828125 52.96875 
Q 50 49.953125 52 44.1875 
z
" id="DejaVuSans-109"/>
    <path d="M 18.109375 8.203125 
L 18.109375 -20.796875 
L 9.078125 -20.796875 
L 9.078125 54.6875 
L 18.109375 54.6875 
L 18.109375 46.390625 
Q 20.953125 51.265625 25.265625 53.625 
Q 29.59375 56 35.59375 56 
Q 45.5625 56 51.78125 48.09375 
Q 58.015625 40.1875 58.015625 27.296875 
Q 58.015625 14.40625 51.78125 6.484375 
Q 45.5625 -1.421875 35.59375 -1.421875 
Q 29.59375 -1.421875 25.265625 0.953125 
Q 20.953125 3.328125 18.109375 8.203125 
z
M 48.6875 27.296875 
Q 48.6875 37.203125 44.609375 42.84375 
Q 40.53125 48.484375 33.40625 48.484375 
Q 26.265625 48.484375 22.1875 42.84375 
Q 18.109375 37.203125 18.109375 27.296875 
Q 18.109375 17.390625 22.1875 11.75 
Q 26.265625 6.109375 33.40625 6.109375 
Q 40.53125 6.109375 44.609375 11.75 
Q 48.6875 17.390625 48.6875 27.296875 
z
" id="DejaVuSans-112"/>
   </defs>
   <g transform="translate(555.291563 24.238125)scale(0.12 -0.12)">
    <use xlink:href="#DejaVuSans-69"/>
    <use x="63.183594" xlink:href="#DejaVuSans-114"/>
    <use x="102.546875" xlink:href="#DejaVuSans-114"/>
    <use x="141.410156" xlink:href="#DejaVuSans-111"/>
    <use x="202.591797" xlink:href="#DejaVuSans-114"/>
    <use x="243.705078" xlink:href="#DejaVuSans-32"/>
    <use x="275.492188" xlink:href="#DejaVuSans-97"/>
    <use x="336.771484" xlink:href="#DejaVuSans-110"/>
    <use x="400.150391" xlink:href="#DejaVuSans-100"/>
    <use x="463.626953" xlink:href="#DejaVuSans-32"/>
    <use x="495.414062" xlink:href="#DejaVuSans-87"/>
    <use x="588.416016" xlink:href="#DejaVuSans-101"/>
    <use x="649.939453" xlink:href="#DejaVuSans-105"/>
    <use x="677.722656" xlink:href="#DejaVuSans-103"/>
    <use x="741.199219" xlink:href="#DejaVuSans-104"/>
    <use x="804.578125" xlink:href="#DejaVuSans-116"/>
    <use x="843.787109" xlink:href="#DejaVuSans-115"/>
    <use x="895.886719" xlink:href="#DejaVuSans-32"/>
    <use x="927.673828" xlink:href="#DejaVuSans-102"/>
    <use x="962.878906" xlink:href="#DejaVuSans-111"/>
    <use x="1024.060547" xlink:href="#DejaVuSans-114"/>
    <use x="1065.173828" xlink:href="#DejaVuSans-32"/>
    <use x="1096.960938" xlink:href="#DejaVuSans-68"/>
    <use x="1173.962891" xlink:href="#DejaVuSans-101"/>
    <use x="1235.486328" xlink:href="#DejaVuSans-99"/>
    <use x="1290.466797" xlink:href="#DejaVuSans-111"/>
    <use x="1351.648438" xlink:href="#DejaVuSans-109"/>
    <use x="1449.060547" xlink:href="#DejaVuSans-112"/>
    <use x="1512.537109" xlink:href="#DejaVuSans-111"/>
    <use x="1573.71875" xlink:href="#DejaVuSans-115"/>
    <use x="1625.818359" xlink:href="#DejaVuSans-105"/>
    <use x="1653.601562" xlink:href="#DejaVuSans-116"/>
    <use x="1692.810547" xlink:href="#DejaVuSans-105"/>
    <use x="1720.59375" xlink:href="#DejaVuSans-111"/>
    <use x="1781.775391" xlink:href="#DejaVuSans-110"/>
   </g>
  </g>
 </g>
 <defs>
  <clipPath id="p339d3679e5">
   <rect height="264.6" width="1032.3" x="166.5" y="90.72"/>
  </clipPath>
  <clipPath id="p9715109731">
   <rect height="264.6" width="1032.3" x="166.5" y="408.24"/>
  </clipPath>
 </defs>
</svg>
